<svg width="610" height="236" viewBox="0 0 610 236" fill="none" xmlns="http://www.w3.org/2000/svg">
<path d="M585.41 12.1094C584.921 12.1094 584.48 12.0156 584.09 11.8281C583.702 11.638 583.392 11.3776 583.16 11.0469C582.928 10.7161 582.805 10.3385 582.789 9.91406H583.961C583.99 10.2578 584.142 10.5404 584.418 10.7617C584.694 10.9831 585.025 11.0937 585.41 11.0937C585.717 11.0937 585.99 11.0234 586.227 10.8828C586.466 10.7396 586.654 10.543 586.789 10.293C586.927 10.043 586.996 9.75781 586.996 9.4375C586.996 9.11198 586.926 8.82161 586.785 8.56641C586.645 8.3112 586.451 8.11068 586.203 7.96484C585.958 7.81901 585.677 7.74479 585.359 7.74219C585.117 7.74219 584.874 7.78385 584.629 7.86719C584.384 7.95052 584.186 8.0599 584.035 8.19531L582.93 8.03125L583.379 4H587.777V5.03516H584.383L584.129 7.27344H584.176C584.332 7.1224 584.539 6.99609 584.797 6.89453C585.057 6.79297 585.336 6.74219 585.633 6.74219C586.12 6.74219 586.553 6.85807 586.934 7.08984C587.316 7.32161 587.617 7.63802 587.836 8.03906C588.057 8.4375 588.167 8.89583 588.164 9.41406C588.167 9.93229 588.049 10.3945 587.813 10.8008C587.578 11.207 587.253 11.5273 586.836 11.7617C586.422 11.9935 585.947 12.1094 585.41 12.1094ZM592.376 12.1328C591.759 12.1302 591.231 11.9674 590.794 11.6445C590.356 11.3216 590.022 10.8516 589.79 10.2344C589.558 9.61719 589.442 8.8737 589.442 8.00391C589.442 7.13672 589.558 6.39583 589.79 5.78125C590.024 5.16667 590.36 4.69792 590.798 4.375C591.238 4.05208 591.764 3.89062 592.376 3.89062C592.988 3.89062 593.513 4.05339 593.95 4.37891C594.388 4.70182 594.722 5.17057 594.954 5.78516C595.188 6.39714 595.306 7.13672 595.306 8.00391C595.306 8.8763 595.19 9.62109 594.958 10.2383C594.726 10.8529 594.392 11.3229 593.954 11.6484C593.517 11.9714 592.991 12.1328 592.376 12.1328ZM592.376 11.0898C592.918 11.0898 593.341 10.8255 593.646 10.2969C593.953 9.76823 594.106 9.00391 594.106 8.00391C594.106 7.33984 594.036 6.77865 593.896 6.32031C593.757 5.85937 593.558 5.51042 593.298 5.27344C593.04 5.03385 592.733 4.91406 592.376 4.91406C591.837 4.91406 591.414 5.17969 591.106 5.71094C590.799 6.24219 590.644 7.00651 590.642 8.00391C590.642 8.67057 590.711 9.23438 590.849 9.69531C590.989 10.1536 591.188 10.5013 591.446 10.7383C591.704 10.9727 592.014 11.0898 592.376 11.0898ZM599.477 12.1328C598.859 12.1302 598.332 11.9674 597.895 11.6445C597.457 11.3216 597.122 10.8516 596.891 10.2344C596.659 9.61719 596.543 8.8737 596.543 8.00391C596.543 7.13672 596.659 6.39583 596.891 5.78125C597.125 5.16667 597.461 4.69792 597.898 4.375C598.339 4.05208 598.865 3.89062 599.477 3.89062C600.089 3.89062 600.613 4.05339 601.051 4.37891C601.488 4.70182 601.823 5.17057 602.055 5.78516C602.289 6.39714 602.406 7.13672 602.406 8.00391C602.406 8.8763 602.29 9.62109 602.059 10.2383C601.827 10.8529 601.492 11.3229 601.055 11.6484C600.617 11.9714 600.091 12.1328 599.477 12.1328ZM599.477 11.0898C600.018 11.0898 600.441 10.8255 600.746 10.2969C601.053 9.76823 601.207 9.00391 601.207 8.00391C601.207 7.33984 601.137 6.77865 600.996 6.32031C600.858 5.85937 600.659 5.51042 600.398 5.27344C600.141 5.03385 599.833 4.91406 599.477 4.91406C598.938 4.91406 598.514 5.17969 598.207 5.71094C597.9 6.24219 597.745 7.00651 597.742 8.00391C597.742 8.67057 597.811 9.23438 597.949 9.69531C598.09 10.1536 598.289 10.5013 598.547 10.7383C598.805 10.9727 599.115 11.0898 599.477 11.0898ZM604.882 9.96484L604.874 8.53906H605.077L607.468 6H608.866L606.14 8.89062H605.956L604.882 9.96484ZM603.808 12V4H604.976V12H603.808ZM607.597 12L605.448 9.14844L606.253 8.33203L609.03 12H607.597Z" fill="#898989"/>
<path d="M582.602 58.4375V57.4609L586.059 52H586.828V53.4375H586.34L583.867 57.3516V57.4141H588.605V58.4375H582.602ZM586.395 60V58.1406L586.402 57.6953V52H587.547V60H586.395ZM592.752 60.1328C592.135 60.1302 591.607 59.9674 591.17 59.6445C590.732 59.3216 590.398 58.8516 590.166 58.2344C589.934 57.6172 589.818 56.8737 589.818 56.0039C589.818 55.1367 589.934 54.3958 590.166 53.7812C590.4 53.1667 590.736 52.6979 591.174 52.375C591.614 52.0521 592.14 51.8906 592.752 51.8906C593.364 51.8906 593.889 52.0534 594.326 52.3789C594.764 52.7018 595.098 53.1706 595.33 53.7852C595.564 54.3971 595.682 55.1367 595.682 56.0039C595.682 56.8763 595.566 57.6211 595.334 58.2383C595.102 58.8529 594.768 59.3229 594.33 59.6484C593.893 59.9714 593.367 60.1328 592.752 60.1328ZM592.752 59.0898C593.294 59.0898 593.717 58.8255 594.021 58.2969C594.329 57.7682 594.482 57.0039 594.482 56.0039C594.482 55.3398 594.412 54.7786 594.271 54.3203C594.133 53.8594 593.934 53.5104 593.674 53.2734C593.416 53.0339 593.109 52.9141 592.752 52.9141C592.213 52.9141 591.79 53.1797 591.482 53.7109C591.175 54.2422 591.02 55.0065 591.018 56.0039C591.018 56.6706 591.087 57.2344 591.225 57.6953C591.365 58.1536 591.564 58.5013 591.822 58.7383C592.08 58.9727 592.39 59.0898 592.752 59.0898ZM599.853 60.1328C599.235 60.1302 598.708 59.9674 598.271 59.6445C597.833 59.3216 597.498 58.8516 597.267 58.2344C597.035 57.6172 596.919 56.8737 596.919 56.0039C596.919 55.1367 597.035 54.3958 597.267 53.7812C597.501 53.1667 597.837 52.6979 598.274 52.375C598.715 52.0521 599.241 51.8906 599.853 51.8906C600.465 51.8906 600.989 52.0534 601.427 52.3789C601.864 52.7018 602.199 53.1706 602.431 53.7852C602.665 54.3971 602.782 55.1367 602.782 56.0039C602.782 56.8763 602.666 57.6211 602.435 58.2383C602.203 58.8529 601.868 59.3229 601.431 59.6484C600.993 59.9714 600.467 60.1328 599.853 60.1328ZM599.853 59.0898C600.394 59.0898 600.817 58.8255 601.122 58.2969C601.429 57.7682 601.583 57.0039 601.583 56.0039C601.583 55.3398 601.513 54.7786 601.372 54.3203C601.234 53.8594 601.035 53.5104 600.774 53.2734C600.517 53.0339 600.209 52.9141 599.853 52.9141C599.313 52.9141 598.89 53.1797 598.583 53.7109C598.276 54.2422 598.121 55.0065 598.118 56.0039C598.118 56.6706 598.187 57.2344 598.325 57.6953C598.466 58.1536 598.665 58.5013 598.923 58.7383C599.181 58.9727 599.491 59.0898 599.853 59.0898ZM605.258 57.9648L605.25 56.5391H605.453L607.844 54H609.242L606.516 56.8906H606.332L605.258 57.9648ZM604.184 60V52H605.352V60H604.184ZM607.973 60L605.824 57.1484L606.629 56.332L609.406 60H607.973Z" fill="#898989"/>
<path d="M585.555 108.109C585.018 108.109 584.539 108.017 584.117 107.832C583.698 107.647 583.366 107.391 583.121 107.062C582.879 106.732 582.749 106.349 582.73 105.914H583.957C583.973 106.151 584.052 106.357 584.195 106.531C584.341 106.703 584.531 106.836 584.766 106.93C585 107.023 585.26 107.07 585.547 107.07C585.862 107.07 586.141 107.016 586.383 106.906C586.628 106.797 586.819 106.645 586.957 106.449C587.095 106.251 587.164 106.023 587.164 105.766C587.164 105.497 587.095 105.262 586.957 105.059C586.822 104.853 586.622 104.691 586.359 104.574C586.099 104.457 585.784 104.398 585.414 104.398H584.738V103.414H585.414C585.711 103.414 585.971 103.361 586.195 103.254C586.422 103.147 586.599 102.999 586.727 102.809C586.854 102.616 586.918 102.391 586.918 102.133C586.918 101.885 586.862 101.671 586.75 101.488C586.641 101.303 586.484 101.159 586.281 101.055C586.081 100.951 585.844 100.898 585.57 100.898C585.31 100.898 585.066 100.947 584.84 101.043C584.616 101.137 584.434 101.272 584.293 101.449C584.152 101.624 584.077 101.833 584.066 102.078H582.898C582.911 101.646 583.039 101.266 583.281 100.937C583.526 100.609 583.849 100.353 584.25 100.168C584.651 99.9831 585.096 99.8906 585.586 99.8906C586.099 99.8906 586.542 99.9909 586.914 100.191C587.289 100.389 587.578 100.654 587.781 100.984C587.987 101.315 588.089 101.677 588.086 102.07C588.089 102.518 587.964 102.898 587.711 103.211C587.461 103.523 587.128 103.733 586.711 103.84V103.902C587.242 103.983 587.654 104.194 587.945 104.535C588.24 104.876 588.385 105.299 588.383 105.805C588.385 106.245 588.263 106.639 588.016 106.988C587.771 107.337 587.436 107.612 587.012 107.812C586.587 108.01 586.102 108.109 585.555 108.109ZM592.645 108.133C592.027 108.13 591.5 107.967 591.063 107.645C590.625 107.322 590.29 106.852 590.059 106.234C589.827 105.617 589.711 104.874 589.711 104.004C589.711 103.137 589.827 102.396 590.059 101.781C590.293 101.167 590.629 100.698 591.066 100.375C591.507 100.052 592.033 99.8906 592.645 99.8906C593.257 99.8906 593.781 100.053 594.219 100.379C594.656 100.702 594.991 101.171 595.223 101.785C595.457 102.397 595.574 103.137 595.574 104.004C595.574 104.876 595.458 105.621 595.227 106.238C594.995 106.853 594.66 107.323 594.223 107.648C593.785 107.971 593.259 108.133 592.645 108.133ZM592.645 107.09C593.186 107.09 593.609 106.826 593.914 106.297C594.221 105.768 594.375 105.004 594.375 104.004C594.375 103.34 594.305 102.779 594.164 102.32C594.026 101.859 593.827 101.51 593.566 101.273C593.309 101.034 593.001 100.914 592.645 100.914C592.105 100.914 591.682 101.18 591.375 101.711C591.068 102.242 590.913 103.007 590.91 104.004C590.91 104.671 590.979 105.234 591.117 105.695C591.258 106.154 591.457 106.501 591.715 106.738C591.973 106.973 592.283 107.09 592.645 107.09ZM599.745 108.133C599.128 108.13 598.601 107.967 598.163 107.645C597.726 107.322 597.391 106.852 597.159 106.234C596.927 105.617 596.812 104.874 596.812 104.004C596.812 103.137 596.927 102.396 597.159 101.781C597.394 101.167 597.729 100.698 598.167 100.375C598.607 100.052 599.133 99.8906 599.745 99.8906C600.357 99.8906 600.882 100.053 601.319 100.379C601.757 100.702 602.091 101.171 602.323 101.785C602.558 102.397 602.675 103.137 602.675 104.004C602.675 104.876 602.559 105.621 602.327 106.238C602.095 106.853 601.761 107.323 601.323 107.648C600.886 107.971 600.36 108.133 599.745 108.133ZM599.745 107.09C600.287 107.09 600.71 106.826 601.015 106.297C601.322 105.768 601.476 105.004 601.476 104.004C601.476 103.34 601.405 102.779 601.265 102.32C601.127 101.859 600.927 101.51 600.667 101.273C600.409 101.034 600.102 100.914 599.745 100.914C599.206 100.914 598.783 101.18 598.476 101.711C598.168 102.242 598.013 103.007 598.011 104.004C598.011 104.671 598.08 105.234 598.218 105.695C598.358 106.154 598.558 106.501 598.815 106.738C599.073 106.973 599.383 107.09 599.745 107.09ZM605.15 105.965L605.143 104.539H605.346L607.736 102H609.135L606.408 104.891H606.225L605.15 105.965ZM604.076 108V100H605.244V108H604.076ZM607.865 108L605.717 105.148L606.521 104.332L609.299 108H607.865Z" fill="#898989"/>
<path d="M582.77 157V156.125L585.477 153.32C585.766 153.016 586.004 152.749 586.191 152.52C586.382 152.288 586.523 152.068 586.617 151.859C586.711 151.651 586.758 151.43 586.758 151.195C586.758 150.93 586.695 150.701 586.57 150.508C586.445 150.313 586.275 150.163 586.059 150.059C585.842 149.952 585.599 149.898 585.328 149.898C585.042 149.898 584.792 149.957 584.578 150.074C584.365 150.191 584.201 150.357 584.086 150.57C583.971 150.784 583.914 151.034 583.914 151.32H582.762C582.762 150.833 582.874 150.408 583.098 150.043C583.322 149.678 583.629 149.396 584.02 149.195C584.41 148.992 584.854 148.891 585.352 148.891C585.854 148.891 586.297 148.991 586.68 149.191C587.065 149.389 587.366 149.66 587.582 150.004C587.798 150.345 587.906 150.73 587.906 151.16C587.906 151.457 587.85 151.747 587.738 152.031C587.629 152.315 587.438 152.632 587.164 152.98C586.891 153.327 586.51 153.747 586.023 154.242L584.434 155.906V155.965H588.035V157H582.77ZM592.301 157.133C591.684 157.13 591.156 156.967 590.719 156.645C590.281 156.322 589.947 155.852 589.715 155.234C589.483 154.617 589.367 153.874 589.367 153.004C589.367 152.137 589.483 151.396 589.715 150.781C589.949 150.167 590.285 149.698 590.723 149.375C591.163 149.052 591.689 148.891 592.301 148.891C592.913 148.891 593.438 149.053 593.875 149.379C594.313 149.702 594.647 150.171 594.879 150.785C595.113 151.397 595.23 152.137 595.23 153.004C595.23 153.876 595.115 154.621 594.883 155.238C594.651 155.853 594.316 156.323 593.879 156.648C593.441 156.971 592.915 157.133 592.301 157.133ZM592.301 156.09C592.842 156.09 593.266 155.826 593.57 155.297C593.878 154.768 594.031 154.004 594.031 153.004C594.031 152.34 593.961 151.779 593.82 151.32C593.682 150.859 593.483 150.51 593.223 150.273C592.965 150.034 592.658 149.914 592.301 149.914C591.762 149.914 591.339 150.18 591.031 150.711C590.724 151.242 590.569 152.007 590.566 153.004C590.566 153.671 590.635 154.234 590.773 154.695C590.914 155.154 591.113 155.501 591.371 155.738C591.629 155.973 591.939 156.09 592.301 156.09ZM599.401 157.133C598.784 157.13 598.257 156.967 597.819 156.645C597.382 156.322 597.047 155.852 596.815 155.234C596.584 154.617 596.468 153.874 596.468 153.004C596.468 152.137 596.584 151.396 596.815 150.781C597.05 150.167 597.386 149.698 597.823 149.375C598.263 149.052 598.789 148.891 599.401 148.891C600.013 148.891 600.538 149.053 600.976 149.379C601.413 149.702 601.748 150.171 601.979 150.785C602.214 151.397 602.331 152.137 602.331 153.004C602.331 153.876 602.215 154.621 601.983 155.238C601.752 155.853 601.417 156.323 600.979 156.648C600.542 156.971 600.016 157.133 599.401 157.133ZM599.401 156.09C599.943 156.09 600.366 155.826 600.671 155.297C600.978 154.768 601.132 154.004 601.132 153.004C601.132 152.34 601.062 151.779 600.921 151.32C600.783 150.859 600.584 150.51 600.323 150.273C600.065 150.034 599.758 149.914 599.401 149.914C598.862 149.914 598.439 150.18 598.132 150.711C597.825 151.242 597.67 152.007 597.667 153.004C597.667 153.671 597.736 154.234 597.874 154.695C598.015 155.154 598.214 155.501 598.472 155.738C598.729 155.973 599.039 156.09 599.401 156.09ZM604.807 154.965L604.799 153.539H605.002L607.393 151H608.791L606.064 153.891H605.881L604.807 154.965ZM603.732 157V149H604.9V157H603.732ZM607.521 157L605.373 154.148L606.178 153.332L608.955 157H607.521Z" fill="#898989"/>
<path d="M585.805 197V205H584.594V198.211H584.547L582.633 199.461V198.305L584.629 197H585.805ZM590.754 205.133C590.137 205.13 589.609 204.967 589.172 204.645C588.734 204.322 588.4 203.852 588.168 203.234C587.936 202.617 587.82 201.874 587.82 201.004C587.82 200.137 587.936 199.396 588.168 198.781C588.402 198.167 588.738 197.698 589.176 197.375C589.616 197.052 590.142 196.891 590.754 196.891C591.366 196.891 591.891 197.053 592.328 197.379C592.766 197.702 593.1 198.171 593.332 198.785C593.566 199.397 593.684 200.137 593.684 201.004C593.684 201.876 593.568 202.621 593.336 203.238C593.104 203.853 592.77 204.323 592.332 204.648C591.895 204.971 591.368 205.133 590.754 205.133ZM590.754 204.09C591.296 204.09 591.719 203.826 592.023 203.297C592.331 202.768 592.484 202.004 592.484 201.004C592.484 200.34 592.414 199.779 592.273 199.32C592.135 198.859 591.936 198.51 591.676 198.273C591.418 198.034 591.111 197.914 590.754 197.914C590.215 197.914 589.792 198.18 589.484 198.711C589.177 199.242 589.022 200.007 589.02 201.004C589.02 201.671 589.089 202.234 589.227 202.695C589.367 203.154 589.566 203.501 589.824 203.738C590.082 203.973 590.392 204.09 590.754 204.09ZM597.854 205.133C597.237 205.13 596.71 204.967 596.272 204.645C595.835 204.322 595.5 203.852 595.269 203.234C595.037 202.617 594.921 201.874 594.921 201.004C594.921 200.137 595.037 199.396 595.269 198.781C595.503 198.167 595.839 197.698 596.276 197.375C596.716 197.052 597.243 196.891 597.854 196.891C598.466 196.891 598.991 197.053 599.429 197.379C599.866 197.702 600.201 198.171 600.433 198.785C600.667 199.397 600.784 200.137 600.784 201.004C600.784 201.876 600.668 202.621 600.437 203.238C600.205 203.853 599.87 204.323 599.433 204.648C598.995 204.971 598.469 205.133 597.854 205.133ZM597.854 204.09C598.396 204.09 598.819 203.826 599.124 203.297C599.431 202.768 599.585 202.004 599.585 201.004C599.585 200.34 599.515 199.779 599.374 199.32C599.236 198.859 599.037 198.51 598.776 198.273C598.519 198.034 598.211 197.914 597.854 197.914C597.315 197.914 596.892 198.18 596.585 198.711C596.278 199.242 596.123 200.007 596.12 201.004C596.12 201.671 596.189 202.234 596.327 202.695C596.468 203.154 596.667 203.501 596.925 203.738C597.183 203.973 597.493 204.09 597.854 204.09ZM603.26 202.965L603.252 201.539H603.455L605.846 199H607.244L604.518 201.891H604.334L603.26 202.965ZM602.186 205V197H603.354V205H602.186ZM605.975 205L603.826 202.148L604.631 201.332L607.408 205H605.975Z" fill="#898989"/>
<path d="M547.988 226H549.191V231.672C549.191 232.185 549.09 232.624 548.887 232.988C548.686 233.353 548.404 233.632 548.039 233.824C547.674 234.014 547.247 234.109 546.758 234.109C546.307 234.109 545.902 234.027 545.543 233.863C545.186 233.699 544.904 233.461 544.695 233.148C544.49 232.833 544.387 232.451 544.387 232H545.586C545.586 232.221 545.637 232.413 545.738 232.574C545.842 232.736 545.984 232.862 546.164 232.953C546.346 233.042 546.555 233.086 546.789 233.086C547.044 233.086 547.26 233.033 547.438 232.926C547.617 232.816 547.754 232.656 547.848 232.445C547.941 232.234 547.988 231.977 547.988 231.672V226ZM556.093 226H557.304V231.262C557.304 231.822 557.172 232.318 556.909 232.75C556.646 233.18 556.276 233.518 555.8 233.766C555.323 234.01 554.765 234.133 554.124 234.133C553.486 234.133 552.929 234.01 552.452 233.766C551.976 233.518 551.606 233.18 551.343 232.75C551.08 232.318 550.948 231.822 550.948 231.262V226H552.155V231.164C552.155 231.526 552.235 231.848 552.394 232.129C552.555 232.41 552.783 232.632 553.077 232.793C553.371 232.952 553.72 233.031 554.124 233.031C554.53 233.031 554.881 232.952 555.175 232.793C555.472 232.632 555.698 232.41 555.854 232.129C556.013 231.848 556.093 231.526 556.093 231.164V226ZM565.516 226V234H564.406L560.34 228.133H560.266V234H559.059V226H560.176L564.246 231.875H564.32V226H565.516Z" fill="#898989"/>
<path d="M432.879 226H434.344L436.891 232.219H436.984L439.531 226H440.996V234H439.848V228.211H439.773L437.414 233.988H436.461L434.102 228.207H434.027V234H432.879V226ZM443.427 234H442.146L445.024 226H446.419L449.298 234H448.017L445.755 227.453H445.692L443.427 234ZM443.642 230.867H447.798V231.883H443.642V230.867ZM449.02 226H450.391L452.48 229.637H452.566L454.656 226H456.027L453.125 230.859V234H451.922V230.859L449.02 226Z" fill="#898989"/>
<path d="M325.555 234H324.273L327.152 226H328.547L331.426 234H330.145L327.883 227.453H327.82L325.555 234ZM325.77 230.867H329.926V231.883H325.77V230.867ZM332.581 234V226H335.433C336.055 226 336.571 226.113 336.979 226.34C337.388 226.566 337.694 226.876 337.897 227.27C338.101 227.66 338.202 228.1 338.202 228.59C338.202 229.082 338.099 229.525 337.894 229.918C337.69 230.309 337.383 230.618 336.972 230.848C336.563 231.074 336.049 231.188 335.429 231.188H333.468V230.164H335.319C335.713 230.164 336.032 230.096 336.276 229.961C336.521 229.823 336.701 229.635 336.815 229.398C336.93 229.161 336.987 228.892 336.987 228.59C336.987 228.288 336.93 228.02 336.815 227.785C336.701 227.551 336.52 227.367 336.272 227.234C336.028 227.102 335.705 227.035 335.304 227.035H333.788V234H332.581ZM339.617 234V226H342.469C343.089 226 343.603 226.107 344.012 226.32C344.423 226.534 344.73 226.829 344.934 227.207C345.137 227.582 345.238 228.016 345.238 228.508C345.238 228.997 345.135 229.428 344.93 229.801C344.727 230.171 344.419 230.458 344.008 230.664C343.599 230.87 343.085 230.973 342.465 230.973H340.305V229.934H342.355C342.746 229.934 343.064 229.878 343.309 229.766C343.556 229.654 343.737 229.491 343.852 229.277C343.966 229.064 344.023 228.807 344.023 228.508C344.023 228.206 343.965 227.944 343.848 227.723C343.733 227.501 343.552 227.332 343.305 227.215C343.06 227.095 342.738 227.035 342.34 227.035H340.824V234H339.617ZM343.566 230.391L345.543 234H344.168L342.23 230.391H343.566Z" fill="#898989"/>
<path d="M213.879 226H215.344L217.891 232.219H217.984L220.531 226H221.996V234H220.848V228.211H220.773L218.414 233.988H217.461L215.102 228.207H215.027V234H213.879V226ZM224.427 234H223.146L226.024 226H227.419L230.298 234H229.017L226.755 227.453H226.692L224.427 234ZM224.642 230.867H228.798V231.883H224.642V230.867ZM231.453 234V226H234.305C234.924 226 235.439 226.107 235.848 226.32C236.259 226.534 236.566 226.829 236.77 227.207C236.973 227.582 237.074 228.016 237.074 228.508C237.074 228.997 236.971 229.428 236.766 229.801C236.563 230.171 236.255 230.458 235.844 230.664C235.435 230.87 234.921 230.973 234.301 230.973H232.141V229.934H234.191C234.582 229.934 234.9 229.878 235.145 229.766C235.392 229.654 235.573 229.491 235.688 229.277C235.802 229.064 235.859 228.807 235.859 228.508C235.859 228.206 235.801 227.944 235.684 227.723C235.569 227.501 235.388 227.332 235.141 227.215C234.896 227.095 234.574 227.035 234.176 227.035H232.66V234H231.453ZM235.402 230.391L237.379 234H236.004L234.066 230.391H235.402Z" fill="#898989"/>
<path d="M108.879 234V226H113.84V227.039H110.086V229.477H113.484V230.512H110.086V234H108.879ZM115.324 234V226H120.34V227.039H116.531V229.477H120.078V230.512H116.531V232.961H120.387V234H115.324ZM121.952 234V226H124.882C125.45 226 125.92 226.094 126.292 226.281C126.664 226.466 126.943 226.717 127.128 227.035C127.313 227.35 127.405 227.706 127.405 228.102C127.405 228.435 127.344 228.716 127.222 228.945C127.099 229.172 126.935 229.354 126.729 229.492C126.526 229.628 126.302 229.727 126.058 229.789V229.867C126.323 229.88 126.582 229.966 126.835 230.125C127.09 230.281 127.301 230.504 127.468 230.793C127.634 231.082 127.718 231.434 127.718 231.848C127.718 232.257 127.621 232.624 127.429 232.949C127.239 233.272 126.944 233.529 126.546 233.719C126.147 233.906 125.638 234 125.019 234H121.952ZM123.159 232.965H124.901C125.479 232.965 125.894 232.853 126.144 232.629C126.394 232.405 126.519 232.125 126.519 231.789C126.519 231.536 126.455 231.305 126.327 231.094C126.2 230.883 126.017 230.715 125.78 230.59C125.546 230.465 125.267 230.402 124.944 230.402H123.159V232.965ZM123.159 229.461H124.776C125.047 229.461 125.291 229.409 125.507 229.305C125.726 229.201 125.899 229.055 126.026 228.867C126.157 228.677 126.222 228.453 126.222 228.195C126.222 227.865 126.106 227.587 125.874 227.363C125.642 227.139 125.287 227.027 124.808 227.027H123.159V229.461Z" fill="#898989"/>
<path d="M4.98828 226H6.19141V231.672C6.19141 232.185 6.08984 232.624 5.88672 232.988C5.6862 233.353 5.40365 233.632 5.03906 233.824C4.67448 234.014 4.2474 234.109 3.75781 234.109C3.30729 234.109 2.90234 234.027 2.54297 233.863C2.1862 233.699 1.90365 233.461 1.69531 233.148C1.48958 232.833 1.38672 232.451 1.38672 232H2.58594C2.58594 232.221 2.63672 232.413 2.73828 232.574C2.84245 232.736 2.98438 232.862 3.16406 232.953C3.34635 233.042 3.55469 233.086 3.78906 233.086C4.04427 233.086 4.26042 233.033 4.4375 232.926C4.61719 232.816 4.75391 232.656 4.84766 232.445C4.94141 232.234 4.98828 231.977 4.98828 231.672V226ZM8.62402 234H7.34277L10.2217 226H11.6162L14.4951 234H13.2139L10.9521 227.453H10.8896L8.62402 234ZM8.83887 230.867H12.9951V231.883H8.83887V230.867ZM22.1074 226V234H20.998L16.9316 228.133H16.8574V234H15.6504V226H16.7676L20.8379 231.875H20.9121V226H22.1074Z" fill="#898989"/>
<path d="M1 175.375L2.65081 180.808C3.23952 182.746 6.00446 182.682 6.5029 180.719L10.06 166.713C10.5831 164.653 13.5329 164.723 13.958 166.805L16.5915 179.703C16.659 180.033 16.8091 180.342 17.0278 180.599L18.1477 181.915C18.4177 182.232 18.5818 182.626 18.6171 183.041L19.5609 194.135C19.6342 194.997 20.2537 195.714 21.096 195.912L22.6254 196.271C23.0941 196.382 23.5781 196.162 23.8042 195.737V195.737C24.2816 194.839 25.627 195.064 25.7872 196.068L26.6967 201.769C26.9169 203.15 28.8337 203.325 29.3009 202.007V202.007C29.3658 201.824 29.4697 201.657 29.6052 201.518L31.9708 199.085C32.2435 198.804 32.428 198.45 32.5014 198.066L36.4993 177.132L39.4598 160.168C39.4791 160.058 39.5076 159.949 39.545 159.844L41.9736 152.992C42.508 151.485 44.5079 151.183 45.463 152.466L46.6526 154.064C47.3272 154.971 48.7597 154.621 48.9404 153.505V153.505C49.1635 152.129 51.1156 152.053 51.445 153.408L51.8112 154.914C52.0215 155.779 52.8997 156.304 53.7608 156.079L53.8098 156.066C54.7467 155.821 55.6908 156.436 55.8457 157.392L56.6202 162.171C56.9817 164.403 60.1869 164.415 60.5661 162.187L61.5357 156.488L64.8784 143.272C65.1261 142.293 66.4763 142.188 66.8718 143.118V143.118C67.3084 144.144 68.8313 143.879 68.8957 142.766L71.1896 103.091C71.2282 102.424 71.5971 101.82 72.1729 101.482L74.2363 100.269C74.7157 99.9874 75.0562 99.5187 75.1759 98.9757L76.0716 94.9148C76.413 93.3672 78.6309 93.4007 78.9253 94.9579V94.9579C79.1953 96.3861 81.1609 96.5814 81.7066 95.2343L82.3189 93.7229C82.8409 92.4344 84.6086 92.2916 85.3306 93.4797V93.4797C86.0934 94.7351 87.984 94.4872 88.3975 93.0777L89.5866 89.0245C90.1029 87.2646 92.5181 87.0697 93.3098 88.7241L94.9442 92.1395C95.7972 93.9221 98.4435 93.5193 98.7275 91.5637L99.7622 84.4399C100.01 82.7368 102.15 82.1206 103.265 83.4314L107.324 88.2028C108.274 89.3195 110.063 89.0683 110.669 87.7332L111.349 86.2346C111.829 85.175 113.231 84.9407 114.03 85.7862V85.7862C114.921 86.7282 116.501 86.3115 116.811 85.0528L118.064 79.9634C118.575 77.8891 121.545 77.953 121.967 80.0474L125.005 95.1548C125.042 95.3406 125.105 95.5202 125.193 95.6881L129.295 103.523C129.911 104.698 131.65 104.498 131.982 103.214V103.214C132.373 101.706 134.542 101.792 134.813 103.327L135.85 109.223C135.882 109.401 135.937 109.573 136.014 109.735L140.281 118.71C141.12 120.475 143.731 120.113 144.059 118.187L144.453 115.867C144.666 114.617 145.989 113.884 147.17 114.346V114.346C148.309 114.793 149.594 114.126 149.864 112.932L151.952 103.73C152.12 102.991 153.038 102.727 153.572 103.266V103.266C154.135 103.833 155.105 103.505 155.208 102.712L159.026 73.3407C159.052 73.1375 159.11 72.9396 159.196 72.7539L167.122 55.7417C167.45 55.037 168.157 54.5864 168.935 54.5864H169.777C170.722 54.5864 171.537 55.2467 171.734 56.1703L172.493 59.7401C172.955 61.9132 176.086 61.8254 176.426 59.6297L178.155 48.4506C178.311 47.4443 179.478 46.9619 180.299 47.5647V47.5647C180.938 48.0344 181.842 47.8576 182.258 47.1816L183.742 44.765C184.685 43.2302 187.018 43.6266 187.401 45.3867L188.687 51.2991C189.134 53.352 192.039 53.4157 192.575 51.3844L195.13 41.7104C195.662 39.6952 198.536 39.7359 199.011 41.7653L200.34 47.4487C200.611 48.6045 202.229 48.6772 202.602 47.5502V47.5502C202.974 46.4245 204.59 46.4952 204.862 47.6491L205.433 50.0653C205.634 50.913 206.39 51.5117 207.261 51.5117H208.406C208.854 51.5117 209.263 51.7674 209.458 52.1702V52.1702C209.905 53.0895 211.233 53.034 211.602 52.0807L212.593 49.5188C213.24 47.8441 215.596 47.805 216.298 49.4573L219.017 55.8474C219.155 56.1722 219.376 56.4546 219.659 56.6661L222.603 58.8681C223.07 59.2171 223.361 59.7524 223.4 60.3338L224.056 69.9703C224.075 70.2505 224.171 70.52 224.334 70.7491V70.7491C225.033 71.7349 226.546 71.5556 226.995 70.4337L227.45 69.2978C227.918 68.1268 229.612 68.2418 229.919 69.4655L230.079 70.1058C230.323 71.0819 231.659 71.2087 232.082 70.296V70.296C232.465 69.4708 233.639 69.4723 234.019 70.2985L235.815 74.1953C236.571 75.836 238.943 75.7128 239.525 74.0025L240.355 71.5622C240.985 69.7121 243.622 69.7704 244.169 71.6465L245.171 75.0823C245.712 76.9372 248.739 73.8915 249.495 75.6695V75.6695C249.685 76.1143 250.682 78.6945 251.673 81.2711C252.287 82.8662 254.49 83.0098 255.303 81.5069L257.433 77.5737C257.809 76.8789 258.839 76.9926 259.054 77.7527V77.7527C259.301 78.6213 260.539 78.6008 260.756 77.7245L262.536 70.5533C262.561 70.4504 262.595 70.3497 262.636 70.2521L265.27 64.0605C265.791 62.8358 267.341 62.4521 268.373 63.2921L268.478 63.3774C269.673 64.3499 271.472 63.6627 271.715 62.1412L272.226 58.9408C272.549 56.9161 275.346 56.6307 276.071 58.5485L276.305 59.1652C276.368 59.3329 276.454 59.4913 276.559 59.6362L278.328 62.0617C279.334 63.441 281.494 63.0074 281.89 61.3468L285.244 47.2665C285.615 45.7074 287.578 45.1966 288.662 46.3768L294.933 53.2022C295.609 53.9376 296.776 53.9153 297.423 53.1547V53.1547C298.129 52.3244 299.43 52.3874 300.053 53.2821L300.348 53.7052C301.194 54.9211 303.022 54.8269 303.739 53.5305L304.336 52.4515C305.245 50.8079 307.713 51.2103 308.053 53.0576L309.684 61.9224C309.849 62.8197 310.874 63.2596 311.638 62.7607V62.7607C312.439 62.2376 313.51 62.7486 313.607 63.7004L314.052 68.0532C314.183 69.3429 315.926 69.6463 316.486 68.4768V68.4768C316.987 67.4298 318.51 67.533 318.865 68.6381L321.989 78.3572C322.612 80.2959 325.396 80.172 325.844 78.1856L328.641 65.7938C328.887 64.7036 329.979 64.0267 331.064 64.2907L337.94 65.9628C339.029 66.2277 340.124 65.5452 340.365 64.4502L341.759 58.1317C342.027 56.9176 343.662 56.6942 344.245 57.792V57.792C344.863 58.9533 346.61 58.6189 346.755 57.3117L346.883 56.1615C347.058 54.5864 349.106 54.0916 349.98 55.4133L350.868 56.755C351.598 57.8574 353.271 57.6599 353.724 56.418L354.344 54.7181C354.557 54.1341 355.351 54.0559 355.674 54.5871V54.5871C356.034 55.1802 356.939 54.9969 357.04 54.3102L359.737 35.9916C359.925 34.7188 361.248 33.9514 362.446 34.4208L363.561 34.8577C364.106 35.0715 364.716 34.759 364.861 34.1914V34.1914C365.103 33.2403 366.441 33.2042 366.735 34.1409L368.007 38.2002C368.659 40.2783 371.692 39.9661 371.906 37.7989L374.093 15.6957C374.281 13.7891 376.784 13.2132 377.787 14.8455L378.657 16.2614C379.153 17.0696 380.186 17.3628 381.033 16.9361V16.9361C381.707 16.5968 382.52 16.7066 383.079 17.2123L389.811 23.2994C390.739 24.1381 392.226 23.6804 392.521 22.4653L392.88 20.9893C393.07 20.2072 394.088 20.0052 394.562 20.6555V20.6555C395.007 21.2657 395.952 21.1336 396.213 20.4249L399.898 10.4078C400.516 8.72926 402.858 8.64325 403.597 10.2719L407.561 19.0085L409.594 22.7256C410.169 23.7771 411.679 23.7771 412.254 22.7256V22.7256C412.937 21.4766 414.81 21.7726 415.074 23.1715L415.111 23.3663C415.431 25.0578 417.837 25.1014 418.218 23.4226L419.084 19.6054C419.325 18.5423 420.373 17.8682 421.441 18.0896L424.397 18.7027C425.27 18.8838 426.157 18.4652 426.573 17.6764L427.901 15.1542C428.8 13.4475 431.355 13.8767 431.647 15.7834L433.276 26.4168C433.531 28.0856 435.776 28.4478 436.543 26.9441L436.591 26.8501C437.047 25.957 438.188 25.675 439.008 26.2528V26.2528C440.01 26.9596 441.405 26.3627 441.586 25.1499L444.734 4.06302C444.852 3.27084 445.431 2.62561 446.206 2.42319L449.443 1.57777C450.614 1.27192 451.786 2.06792 451.933 3.2691L456.095 37.1644C456.238 38.323 457.897 38.3801 458.118 37.234L458.202 36.8003C458.369 35.9385 459.55 35.8133 459.894 36.621V36.621C460.234 37.4209 461.402 37.3081 461.583 36.4579L461.648 36.1495C461.828 35.3065 462.924 35.0801 463.423 35.7832L463.959 36.5401C464.671 37.5436 466.238 37.203 466.469 35.9946L468.469 25.5212C468.86 23.4778 471.722 23.3142 472.343 25.2998L476.489 38.5661C476.62 38.9858 476.886 39.3505 477.245 39.604L478.149 40.2412C479.268 41.0303 480.831 40.4872 481.219 39.1743L481.345 38.7488C481.922 36.7979 484.705 36.8546 485.202 38.8275L485.804 41.2147C486.091 42.3518 487.442 42.8311 488.381 42.1287V42.1287C489.361 41.3959 490.769 41.9528 490.983 43.1575L491.921 48.4522C492.106 49.4961 493.423 49.8531 494.11 49.0456V49.0456C494.702 48.3502 495.814 48.5005 496.2 49.3279L499.967 57.4004C500.676 58.9207 502.829 58.9447 503.572 57.4406L508.369 47.7301C508.425 47.6162 508.468 47.496 508.495 47.372V47.372C508.88 45.6544 511.354 45.7327 511.629 47.4711L512.54 53.2283C512.821 55.0025 515.117 55.5358 516.151 54.0671L520.059 48.5166C520.937 47.2702 522.871 47.6196 523.257 49.0942V49.0942C523.531 50.1419 524.665 50.7084 525.667 50.2986L529.931 48.5554C531.156 48.0545 532.521 48.8602 532.675 50.1747L534.778 68.1914C534.896 69.1994 535.75 69.9595 536.765 69.9595H537.999C538.682 69.9595 539.318 70.308 539.685 70.8837L540.546 72.2339C541.56 73.8218 544.006 73.2566 544.22 71.3852L546.86 48.2779C546.913 47.8131 547.128 47.3817 547.466 47.0586L551.631 43.081C552.317 42.4262 553.421 42.5194 553.987 43.28V43.28C554.693 44.2292 556.155 44.0919 556.672 43.0276L558.328 39.6218C558.955 38.3319 560.827 38.4402 561.302 39.7938V39.7938C561.783 41.1691 563.697 41.2516 564.296 39.923L566 36.1386" stroke="url(#paint0_linear_531_106)" stroke-width="2"/>
<defs>
<linearGradient id="paint0_linear_531_106" x1="20" y1="178.5" x2="317.951" y2="387.811" gradientUnits="userSpaceOnUse">
<stop stop-color="#97EE47"/>
<stop offset="0.118961" stop-color="#777BFF"/>
<stop offset="0.262248" stop-color="#40C5E9"/>
<stop offset="0.388416" stop-color="#BBDF80"/>
<stop offset="0.529954" stop-color="#D8A9C8"/>
</linearGradient>
</defs>
</svg>
