<svg id="Layer_1" data-name="Layer 1" xmlns="http://www.w3.org/2000/svg" xmlns:xlink="http://www.w3.org/1999/xlink" viewBox="0 0 16 16"><defs><linearGradient id="linear-gradient" x1="0.467" y1="8" x2="8.144" y2="8" gradientUnits="userSpaceOnUse"><stop offset="0" stop-color="#71f2f2"/><stop offset="0.489" stop-color="#6ce4f3"/></linearGradient><linearGradient id="linear-gradient-2" x1="8.037" y1="8.022" x2="15.728" y2="8.022" gradientUnits="userSpaceOnUse"><stop offset="0" stop-color="#9084f7"/><stop offset="1" stop-color="#9084f7"/></linearGradient></defs><path d="M6.924,11.164c0-.012-.005-.013-.01,0A2.145,2.145,0,0,1,6,12.019a3.186,3.186,0,0,1-1.079.292A5.241,5.241,0,0,1,3.882,12.3a3.6,3.6,0,0,1-2.358-1.228A4.22,4.22,0,0,1,.493,8.679a5.887,5.887,0,0,1,0-1.054A4.806,4.806,0,0,1,1.477,5,3.462,3.462,0,0,1,4.1,3.681c1.533-.092,3.065.409,3.615,1.985a4.127,4.127,0,0,1,.2,1l0,0H6.493a.005.005,0,0,1-.006-.006A2.344,2.344,0,0,0,6.3,5.884a1.906,1.906,0,0,0-1.852-.949,2.14,2.14,0,0,0-1.881.885,4.02,4.02,0,0,0-.648,2.665,3.249,3.249,0,0,0,.627,1.687,2.233,2.233,0,0,0,1.753.889,3.087,3.087,0,0,0,1.169-.149A1.915,1.915,0,0,0,6.69,9.574a2.546,2.546,0,0,0,.079-.592s0-.008-.009-.008H4.467l0,0V7.719s0-.008.007-.008H8.137s.007,0,.007.007l-.109,4.418,0,.005H7.048a.008.008,0,0,1-.008-.007l-.116-.97Z" fill="url(#linear-gradient)"/><polygon points="14.125 3.916 14.122 3.918 11.028 7.51 11.02 7.508 9.661 3.919 9.657 3.916 8.041 3.916 8.037 3.923 10.001 8.724 10.001 8.726 9.129 12.122 9.134 12.128 10.547 12.128 10.551 12.125 11.362 8.852 11.363 8.85 15.727 3.924 15.724 3.916 14.125 3.916 14.125 3.916" fill="url(#linear-gradient-2)"/></svg>