<svg id="Layer_1" data-name="Layer 1" xmlns="http://www.w3.org/2000/svg" viewBox="0 0 16 16"><path d="M5.154,1.254A4.394,4.394,0,0,1,8,8,4.4,4.4,0,0,0,.736,7.09,7.322,7.322,0,0,1,5.154,1.254Z" fill="#8996f6"/><path d="M.694,7.544A7.313,7.313,0,0,0,3.58,13.837,4.4,4.4,0,0,1,8,8,4.4,4.4,0,0,0,.736,7.09C.717,7.24.7,7.391.694,7.544Z" fill="#7abff5"/><path d="M7.544,15.306a7.283,7.283,0,0,0,3.3-.56A4.393,4.393,0,0,1,8,8a4.4,4.4,0,0,0-4.42,5.837A7.293,7.293,0,0,0,7.544,15.306Z" fill="#71f1f2"/><path d="M15.264,8.91A4.394,4.394,0,0,1,8,8a4.393,4.393,0,0,0,2.847,6.746A7.321,7.321,0,0,0,15.264,8.91Z" fill="#6ee9f3"/><path d="M15.306,8.456A7.313,7.313,0,0,0,12.42,2.163,4.4,4.4,0,0,1,8,8a4.4,4.4,0,0,0,7.264.91C15.283,8.76,15.3,8.608,15.306,8.456Z" fill="#6ce4f3"/><path d="M8.456.694a7.276,7.276,0,0,0-3.3.56A4.394,4.394,0,0,1,8,8a4.4,4.4,0,0,0,4.42-5.837A7.287,7.287,0,0,0,8.456.694Z" fill="#9084f7"/><path d="M4.739,1.444A4.394,4.394,0,0,1,8,8,4.393,4.393,0,0,0,.694,7.544,7.321,7.321,0,0,1,4.739,1.444Z" fill="#8996f6"/><path d="M.679,8a7.317,7.317,0,0,0,3.273,6.1A4.4,4.4,0,0,1,8,8,4.4,4.4,0,0,0,.693,7.544C.684,7.7.679,7.847.679,8Z" fill="#7abff5"/><path d="M8,15.321a7.3,7.3,0,0,0,3.261-.765A4.4,4.4,0,0,1,8,8a4.4,4.4,0,0,0-4.048,6.1A7.289,7.289,0,0,0,8,15.321Z" fill="#71f1f2"/><path d="M15.307,8.456A4.4,4.4,0,0,1,8,8a4.4,4.4,0,0,0,3.261,6.556A7.324,7.324,0,0,0,15.307,8.456Z" fill="#6ee9f3"/><path d="M15.321,8a7.314,7.314,0,0,0-3.273-6.1A4.4,4.4,0,0,1,8,8a4.4,4.4,0,0,0,7.307.456C15.316,8.305,15.321,8.153,15.321,8Z" fill="#6ce4f3"/><path d="M8,.679a7.3,7.3,0,0,0-3.261.765A4.4,4.4,0,0,1,8,8a4.4,4.4,0,0,0,4.048-6.1A7.286,7.286,0,0,0,8,.679Z" fill="#9084f7"/></svg>