<svg width="20" height="20" viewBox="0 0 20 20" fill="none" xmlns="http://www.w3.org/2000/svg">
<rect width="20" height="20" rx="4" fill="#8147E5"/>
<g clip-path="url(#clip0_393_9)">
<path d="M13.5644 6.96121C13.3094 6.80739 12.9815 6.80739 12.6901 6.96121L10.6501 8.23034L9.26577 9.03793L7.26214 10.3071C7.00715 10.4609 6.67927 10.4609 6.38787 10.3071L4.82143 9.30716C4.56644 9.15332 4.38426 8.84563 4.38426 8.49954V6.57662C4.38426 6.26899 4.52996 5.96127 4.82143 5.76902L6.38787 4.80752C6.64286 4.6537 6.97074 4.6537 7.26214 4.80752L8.8286 5.80746C9.08356 5.96127 9.26577 6.26899 9.26577 6.61506V7.88419L10.6501 7.03808V5.73051C10.6501 5.42287 10.5044 5.11515 10.2129 4.92291L7.29862 3.11536C7.04363 2.96155 6.71575 2.96155 6.42435 3.11536L3.43717 4.96141C3.14577 5.11523 3 5.42295 3 5.73058V9.34573C3 9.65336 3.1457 9.9611 3.43717 10.1533L6.38794 11.9609C6.64293 12.1147 6.97081 12.1147 7.26221 11.9609L9.26582 10.7302L10.6501 9.88407L12.6538 8.65338C12.9088 8.49954 13.2367 8.49954 13.5281 8.65338L15.0945 9.61484C15.3495 9.76869 15.5316 10.0764 15.5316 10.4225V12.3454C15.5316 12.653 15.386 12.9608 15.0945 13.153L13.5644 14.1145C13.3095 14.2683 12.9816 14.2683 12.6901 14.1145L11.1237 13.153C10.8687 12.9992 10.6866 12.6915 10.6866 12.3454V11.1147L9.30225 11.9608V13.2299C9.30225 13.5376 9.44792 13.8453 9.73942 14.0375L12.6901 15.8451C12.9452 15.9989 13.273 15.9989 13.5644 15.8451L16.5152 14.0375C16.7702 13.8837 16.9524 13.576 16.9524 13.2299V9.57633C16.9524 9.2687 16.8067 8.96101 16.5152 8.76876L13.5644 6.96121Z" fill="white"/>
</g>
<defs>
<clipPath id="clip0_393_9">
<rect width="14" height="13" fill="white" transform="translate(3 3)"/>
</clipPath>
</defs>
</svg>
