<svg width="274" height="241" viewBox="0 0 274 241" fill="none" xmlns="http://www.w3.org/2000/svg">
<path d="M206.76 73.4347C201.769 70.5831 195.352 70.5831 189.649 73.4347L149.723 96.9625L122.63 111.934L83.4162 135.462C78.4256 138.314 72.0085 138.314 66.3054 135.462L35.648 116.925C30.6574 114.073 27.0919 108.369 27.0919 101.953V66.3051C27.0919 60.602 29.9435 54.8974 35.648 51.3333L66.3054 33.5086C71.296 30.6571 77.7131 30.6571 83.4162 33.5086L114.074 52.0459C119.064 54.8974 122.63 60.602 122.63 67.0176V90.5454L149.723 74.8597V50.6194C149.723 44.9163 146.871 39.2117 141.167 35.6477L84.1301 2.13867C79.1396 -0.712889 72.7225 -0.712889 67.0194 2.13867L8.55609 36.3616C2.85298 39.2132 0 44.9177 0 50.6208V117.64C0 123.343 2.85155 129.048 8.55609 132.612L66.3068 166.121C71.2974 168.972 77.7145 168.972 83.4176 166.121L122.631 143.306L149.724 127.62L188.938 104.805C193.929 101.953 200.346 101.953 206.049 104.805L236.706 122.629C241.697 125.481 245.262 131.185 245.262 137.601V173.249C245.262 178.952 242.411 184.657 236.706 188.221L206.761 206.046C201.771 208.897 195.354 208.897 189.65 206.046L158.993 188.221C154.002 185.369 150.437 179.665 150.437 173.249V150.434L123.344 166.119V189.647C123.344 195.35 126.195 201.055 131.9 204.619L189.65 238.128C194.641 240.98 201.058 240.98 206.761 238.128L264.512 204.619C269.503 201.767 273.068 196.063 273.068 189.647V121.915C273.068 116.212 270.217 110.508 264.512 106.944L206.76 73.4347Z" fill="white"/>
</svg>
