<svg id="Layer_1" data-name="Layer 1" xmlns="http://www.w3.org/2000/svg" xmlns:xlink="http://www.w3.org/1999/xlink" viewBox="0 0 1016.25 200.67"><defs><linearGradient id="linear-gradient" x1="9.87" y1="107" x2="1026.13" y2="107" gradientUnits="userSpaceOnUse"><stop offset="0" stop-color="#71f2f2"/><stop offset="0.49" stop-color="#6ce4f3"/><stop offset="0.88" stop-color="#9084f7"/></linearGradient></defs><path d="M159.51,180.31c0-.26-.11-.28-.25-.05C154.35,188.6,147,196,138.14,200.14a74.14,74.14,0,0,1-25,6.77A121.53,121.53,0,0,1,89,206.53C67.41,204,48.55,194.44,34.35,178.07a97.79,97.79,0,0,1-23.87-55.33,136.46,136.46,0,0,1-.11-24.43c1.71-22.13,9.15-43.22,22.89-60.79C48.41,18.16,69.6,8.36,94.06,6.91c35.52-2.12,71,9.49,83.77,46a96,96,0,0,1,4.71,23.23s0,.07-.06.07h-33a.14.14,0,0,1-.16-.14c-.63-6.33-1.7-12.33-4.44-18.11-8-16.83-25.72-21.9-42.9-22-17.77-.1-33.18,5.64-43.6,20.5-12.55,17.89-16.91,40.19-15,61.76a75.42,75.42,0,0,0,14.55,39.1c10,13.31,24.19,19.81,40.62,20.6a71.9,71.9,0,0,0,27.09-3.45,44.37,44.37,0,0,0,28.42-31,58.12,58.12,0,0,0,1.83-13.71.17.17,0,0,0-.19-.19H102.57a.08.08,0,0,1-.08-.09v-29c0-.12.05-.17.17-.17h85c.1,0,.16,0,.15.15l-2.51,102.39a.12.12,0,0,1-.12.11H162.38a.16.16,0,0,1-.18-.15l-2.69-22.5ZM527,46.29V11.2a.18.18,0,0,0-.18-.17h-32a.18.18,0,0,0-.18.17V46.29a.18.18,0,0,0,.18.18h32a.18.18,0,0,0,.18-.18ZM989,12.36a.12.12,0,0,0-.08,0L917.2,95.64a.11.11,0,0,1-.18,0L885.53,12.43a.1.1,0,0,0-.1-.07H848a.11.11,0,0,0-.1.15L893.4,123.77a.15.15,0,0,1,0,.07L873.2,202.53a.1.1,0,0,0,.1.13H906a.11.11,0,0,0,.11-.08l18.78-75.86a.08.08,0,0,1,0,0L1026.1,12.54a.11.11,0,0,0-.08-.18ZM231.29,143.6c0-.11,0-.17.15-.17H335.32a.13.13,0,0,0,.13-.11c1.73-23.45-3.9-49.6-20.73-66.9a57.78,57.78,0,0,0-35.21-17.31c-16.21-2.06-33.23.78-47.11,9.6-23,14.58-34.89,39.91-33.31,66.82,1.1,18.83,7,37.45,20.33,51.19,10.78,11.09,25.22,17,40.47,18.71,17.91,2.06,37.1-1,51.59-11.88,10.83-8.13,18.09-20.33,21.2-33.6q.88-3.8,1.64-7.71a.11.11,0,0,0-.1-.12H303.06a.19.19,0,0,0-.21.18,44.49,44.49,0,0,1-2.33,8.44c-5.2,12.39-16.52,16.95-29.29,17.27a48,48,0,0,1-19.8-3.31c-12.83-5.41-18.57-17.91-20.14-31.1m27.64-55.94c20.61-5.82,40.59,6,44.08,27.39,0,.09,0,.14-.11.14H232.8a.1.1,0,0,1-.09-.12c3.71-13,13-23.66,26.22-27.41ZM380.2,76.53c-.1.13-.15.11-.15,0V61.71a.15.15,0,0,0-.15-.14H349.58a.09.09,0,0,0-.09.09V202.83a.13.13,0,0,0,.13.13h31.64a.08.08,0,0,0,.08-.08q0-36-.08-71.94c0-13.19,1.06-30.93,13.26-39.1,7.73-5.17,18.82-6.06,28-5a28.41,28.41,0,0,1,7.64,1.89c10.31,4.25,12.19,15.07,12.19,25q0,44.58,0,89.13a.09.09,0,0,0,.09.09h31.66a.08.08,0,0,0,.08-.07V113.34c0-10.65-1.35-21.07-6.43-30.39-10.18-18.65-30.14-25-50.31-24.44-14.84.37-28.12,6.17-37.25,18ZM796.72,187.17c8.45-9.25,11.37-21.25,9.76-33.56a32.4,32.4,0,0,0-10.72-20.75c-4-3.44-9.66-6.4-14.49-8.5-12.37-5.35-26-7.44-39-10.08q-2.7-.56-5.44-1.38c-7.56-2.32-18.06-4.88-16.5-15.28,1.64-10.94,18.46-12,26.65-11.6,6.72.29,14.73,1.24,19.35,6.68,3.26,3.83,4.38,8.72,5.5,13.62a.21.21,0,0,0,.22.18h29.42c.09,0,.13,0,.12-.14-1.59-14.7-5.2-30.27-18.67-38.76-11.73-7.39-27-9.1-40.61-9.11a68.6,68.6,0,0,0-35,9.15c-11.46,6.72-18.19,16.71-18.87,30.19a44.56,44.56,0,0,0,2,15.26c3.27,10.53,11.28,17.28,21.21,21.35,10.46,4.28,19.9,6.16,32.36,8.5,3.09.59,6.23,1.41,9.35,2.13,1.94.44,4.75,1.26,8.41,2.46,4.84,1.58,9.23,4.17,11.68,8.83,2.26,4.31,2.32,10.83-1.37,14.62a15.9,15.9,0,0,1-5.38,3.56c-9.16,3.8-19.71,4.71-29.49,3.62-11-1.22-20.92-5.71-22.09-18-.15-1.57-.29-3.16-.43-4.76a.14.14,0,0,0-.16-.16h-30.7a.12.12,0,0,0-.13.14c.57,16.33,4.82,31.63,19.6,40.75,10.63,6.56,23.33,9.35,35.67,9.85,20.72.85,43-2.6,57.73-18.77Zm-270,15.68V61.68a.11.11,0,0,0-.11-.11H495.05a.11.11,0,0,0-.11.11V202.85a.11.11,0,0,0,.11.11h31.61a.11.11,0,0,0,.11-.11ZM641.5,188c.1-.12.14-.11.14.05v14.79a.14.14,0,0,0,.16.15h30.33a.08.08,0,0,0,.08-.09V61.66a.09.09,0,0,0-.09-.09H640.44a.07.07,0,0,0-.07.07q0,38.14,0,76.3c0,9.89-1.47,21.51-7.71,29.64S616,178,606.35,178c-10.07.07-20.48-1.73-24.6-12.31a38,38,0,0,1-2.4-13.89q0-45,0-90.11c0-.11-.06-.16-.17-.16H547.6a.09.09,0,0,0-.09.08q0,45.93,0,91.88c0,20.61,8.44,39.17,28.06,47.57,8,3.42,16.28,4.7,25.15,4.9,14.79.33,29.54-4.31,39.18-16.08q.81-1,1.59-1.95Z" transform="translate(-9.87 -6.67)" fill="url(#linear-gradient)"/></svg>