<svg width="555" height="278" viewBox="0 0 555 278" fill="none" xmlns="http://www.w3.org/2000/svg">
<g clip-path="url(#clip0_438_101)">
<path d="M0 243.959C0 243.959 3.72261 243.959 3.85098 243.959C3.97934 243.959 7.57359 243.968 7.70195 243.959C7.83032 243.949 11.4246 243.551 11.5529 243.403C11.6813 243.255 15.2755 235.315 15.4039 235.069C15.5323 234.824 19.1265 229.02 19.2549 228.655C19.3832 228.29 22.9775 213.581 23.1059 213.163C23.2342 212.745 26.8285 203.728 26.9568 203.573C27.0852 203.417 30.6794 203.82 30.8078 203.824C30.9362 203.828 34.5304 203.823 34.6588 203.824C34.7871 203.825 38.3814 203.883 38.5098 203.885C38.6381 203.886 42.2324 203.91 42.3607 203.91C42.4891 203.911 46.0833 203.91 46.2117 203.91C46.3401 203.91 49.9343 203.906 50.0627 203.91C50.1911 203.914 53.7853 204.155 53.9137 204.159C54.042 204.164 57.6363 204.159 57.7646 204.159C57.893 204.159 61.4872 204.119 61.6156 204.159C61.744 204.2 65.3382 206.25 65.4666 206.563C65.595 206.876 69.1892 222.505 69.3176 222.92C69.4459 223.335 73.0402 231.342 73.1685 231.485C73.2969 231.627 76.8912 231.487 77.0195 231.485C77.1479 231.482 80.7421 231.358 80.8705 231.356C80.9989 231.355 84.5931 231.314 84.7215 231.368C84.8498 231.422 88.4441 234.535 88.5724 234.589C88.7008 234.642 92.2951 234.589 92.4234 234.589C92.5518 234.589 96.146 234.589 96.2744 234.589C96.4028 234.589 99.997 234.594 100.125 234.589C100.254 234.583 103.848 234.29 103.976 234.244C104.105 234.199 107.699 231.901 107.827 231.871C107.956 231.841 111.55 232.435 111.678 232.451C111.807 232.466 115.401 232.8 115.529 232.806C115.658 232.812 119.252 232.806 119.38 232.806C119.509 232.806 123.103 232.802 123.231 232.806C123.36 232.811 126.954 233.067 127.082 233.072C127.211 233.076 130.805 233.066 130.933 233.072C131.062 233.078 134.656 233.419 134.784 233.417C134.913 233.416 138.507 232.995 138.635 232.988C138.763 232.981 142.358 232.988 142.486 232.988C142.614 232.988 146.209 232.988 146.337 232.988C146.465 232.988 150.06 232.988 150.188 232.988C150.316 232.988 153.911 233.058 154.039 232.988C154.167 232.919 157.762 228.887 157.89 228.818C158.018 228.748 161.613 228.818 161.741 228.818C161.869 228.818 165.464 228.887 165.592 228.818C165.72 228.749 169.315 224.752 169.443 224.653C169.571 224.555 173.166 222.921 173.294 222.892C173.422 222.863 177.017 222.892 177.145 222.892C177.273 222.892 180.867 222.892 180.996 222.892C181.124 222.892 184.718 222.892 184.847 222.892C184.975 222.892 188.569 222.892 188.698 222.892C188.826 222.892 192.42 222.909 192.549 222.892C192.677 222.875 196.271 221.908 196.4 221.891C196.528 221.874 200.122 221.891 200.251 221.891C200.379 221.891 203.973 221.891 204.102 221.891C204.23 221.891 207.824 221.891 207.953 221.891C208.081 221.891 211.675 221.893 211.804 221.891C211.932 221.889 215.526 221.775 215.655 221.774C215.783 221.772 219.377 221.843 219.506 221.774C219.634 221.704 223.228 217.692 223.357 217.623C223.485 217.553 227.079 217.623 227.208 217.623C227.336 217.623 230.93 217.623 231.059 217.623C231.187 217.623 234.781 217.623 234.91 217.623C235.038 217.623 238.632 217.623 238.761 217.623C238.889 217.622 242.483 217.614 242.611 217.614C242.74 217.614 246.334 217.716 246.462 217.614C246.591 217.511 250.185 211.559 250.313 211.456C250.442 211.354 254.036 211.521 254.164 211.456C254.293 211.391 257.887 207.611 258.015 207.545C258.144 207.48 261.738 207.545 261.866 207.545C261.995 207.545 265.589 207.545 265.717 207.545C265.846 207.545 269.44 207.547 269.568 207.545C269.697 207.544 273.291 207.454 273.419 207.453C273.548 207.451 277.142 207.453 277.27 207.453C277.399 207.453 280.993 207.453 281.121 207.453C281.25 207.453 284.844 207.453 284.972 207.453C285.101 207.453 288.695 207.542 288.823 207.453C288.952 207.364 292.546 202.261 292.674 202.115C292.803 201.969 296.397 198.767 296.525 198.715C296.654 198.662 300.248 198.947 300.376 198.947C300.504 198.948 304.099 198.746 304.227 198.743C304.355 198.74 307.95 198.743 308.078 198.743C308.206 198.743 311.801 198.743 311.929 198.743C312.057 198.743 315.652 198.757 315.78 198.757C315.908 198.757 319.503 198.757 319.631 198.757C319.759 198.757 323.354 198.757 323.482 198.757C323.61 198.757 327.205 199.298 327.333 198.757C327.461 198.216 331.056 167.287 331.184 166.278C331.312 165.268 334.907 138.859 335.035 138.188C335.163 137.516 338.757 126.285 338.886 125.969C339.014 125.654 342.608 119.427 342.737 119.237C342.865 119.046 346.459 114.642 346.588 114.564C346.716 114.486 350.31 114.564 350.439 114.564C350.567 114.564 354.161 114.564 354.29 114.564C354.418 114.564 358.012 114.564 358.141 114.564C358.269 114.564 361.863 114.675 361.992 114.564C362.12 114.453 365.714 108.005 365.843 107.894C365.971 107.783 369.565 107.895 369.694 107.894C369.822 107.892 373.416 107.808 373.545 107.806C373.673 107.805 377.267 107.806 377.396 107.806C377.524 107.806 381.118 107.806 381.247 107.806C381.375 107.806 384.969 107.806 385.098 107.806C385.226 107.806 388.82 107.843 388.949 107.806C389.077 107.77 392.671 105.708 392.8 105.637C392.928 105.567 396.522 103.806 396.65 103.585C396.779 103.364 400.373 92.5602 400.501 92.3716C400.63 92.1831 404.224 92.2761 404.352 92.2745C404.481 92.2729 408.075 92.2745 408.203 92.2745C408.332 92.2745 411.926 92.2745 412.054 92.2745C412.183 92.2745 415.777 92.2745 415.905 92.2745C416.034 92.2745 419.628 92.2745 419.756 92.2745C419.885 92.2745 423.479 92.2745 423.607 92.2745C423.736 92.2745 427.33 92.2745 427.458 92.2745C427.587 92.2745 431.181 92.2745 431.309 92.2745C431.438 92.2745 435.032 92.2745 435.16 92.2745C435.289 92.2745 438.883 92.2742 439.011 92.2745C439.14 92.2747 442.734 92.2817 442.862 92.2885C442.991 92.2952 446.585 92.6737 446.713 92.6802C446.842 92.6868 450.436 92.6802 450.564 92.6802C450.693 92.6802 454.287 92.6802 454.415 92.6802C454.543 92.6802 458.138 92.6802 458.266 92.6802C458.395 92.6802 461.989 92.9103 462.117 92.6802C462.245 92.4502 465.84 79.1084 465.968 78.8784C466.096 78.6484 469.691 78.8784 469.819 78.8784C469.947 78.8784 473.542 78.8785 473.67 78.8786C473.798 78.8787 477.393 78.7742 477.521 78.8844C477.649 78.9947 481.244 85.3743 481.372 85.4921C481.5 85.6099 485.095 85.9473 485.223 85.955C485.351 85.9627 488.946 85.955 489.074 85.955C489.202 85.955 492.797 85.955 492.925 85.955C493.053 85.955 496.648 85.955 496.776 85.955C496.904 85.955 500.498 85.955 500.627 85.955C500.755 85.955 504.349 85.955 504.478 85.955C504.606 85.955 508.2 86.0068 508.329 85.955C508.457 85.9032 512.051 83.0981 512.18 82.8476C512.308 82.5971 515.902 71.1248 516.031 70.926C516.159 70.7272 519.753 70.8524 519.882 70.9178C520.01 70.9832 523.604 74.777 523.733 74.8492C523.861 74.9215 527.455 75.2464 527.584 75.2531C527.712 75.2599 531.306 75.2531 531.435 75.2531C531.563 75.2531 535.157 75.2531 535.286 75.2531C535.414 75.2531 539.008 75.2531 539.137 75.2531C539.265 75.2531 542.859 75.1741 542.988 75.2531C543.116 75.3321 546.71 79.913 546.839 79.992C546.967 80.071 550.553 79.8849 550.69 79.992C550.826 80.0991 555 86.4172 555 86.4172" stroke="url(#paint0_linear_438_101)" stroke-width="2"/>
</g>
<defs>
<linearGradient id="paint0_linear_438_101" x1="45" y1="192.5" x2="254.472" y2="401.035" gradientUnits="userSpaceOnUse">
<stop stop-color="#97EE47"/>
<stop offset="0.230592" stop-color="#40C5E9"/>
<stop offset="0.391259" stop-color="#777BFF"/>
<stop offset="0.567426" stop-color="#BBDF80"/>
<stop offset="0.739936" stop-color="#D8A9C8"/>
</linearGradient>
<clipPath id="clip0_438_101">
<rect width="555" height="278" fill="white"/>
</clipPath>
</defs>
</svg>
