<svg width="102" height="102" viewBox="0 0 102 102" fill="none" xmlns="http://www.w3.org/2000/svg">
<rect x="5.32048" y="4.32048" width="92.359" height="92.359" rx="8.65292" fill="#181819" stroke="#40C5E9" stroke-width="0.640957"/>
<path d="M10.3086 4.6416L10.3086 96.2985" stroke="white" stroke-opacity="0.03" stroke-width="0.640957"/>
<path d="M19.9238 4.6416L19.9238 96.2985" stroke="white" stroke-opacity="0.03" stroke-width="0.640957"/>
<path d="M28.8965 4.6416L28.8965 96.2985" stroke="white" stroke-opacity="0.03" stroke-width="0.640957"/>
<path d="M37.8711 4.6416L37.8711 96.2985" stroke="white" stroke-opacity="0.03" stroke-width="0.640957"/>
<path d="M100.043 20.0244L2.61746 20.0244" stroke="white" stroke-opacity="0.03" stroke-width="0.640957"/>
<path d="M100.043 12.333L2.61746 12.333" stroke="white" stroke-opacity="0.03" stroke-width="0.640957"/>
<path d="M100.043 27.7158L2.61746 27.7158" stroke="white" stroke-opacity="0.03" stroke-width="0.640957"/>
<path d="M100.043 35.4072L2.61746 35.4072" stroke="white" stroke-opacity="0.03" stroke-width="0.640957"/>
<path d="M100.043 43.7393L2.61746 43.7393" stroke="white" stroke-opacity="0.03" stroke-width="0.640957"/>
<path d="M100.043 50.79L2.61746 50.79" stroke="white" stroke-opacity="0.03" stroke-width="0.640957"/>
<path d="M100.043 58.4814L2.61746 58.4814" stroke="white" stroke-opacity="0.03" stroke-width="0.640957"/>
<path d="M100.043 66.8145H2.61746" stroke="white" stroke-opacity="0.03" stroke-width="0.640957"/>
<path d="M100.043 74.5059H2.61746" stroke="white" stroke-opacity="0.03" stroke-width="0.640957"/>
<path d="M100.043 82.1973H2.61746" stroke="white" stroke-opacity="0.03" stroke-width="0.640957"/>
<path d="M100.043 89.8887H2.61746" stroke="white" stroke-opacity="0.03" stroke-width="0.640957"/>
<path d="M47.4844 4.6416L47.4844 96.2985" stroke="white" stroke-opacity="0.03" stroke-width="0.640957"/>
<path d="M55.8164 4.6416L55.8164 96.2985" stroke="white" stroke-opacity="0.03" stroke-width="0.640957"/>
<path d="M65.4316 4.6416L65.4316 96.2985" stroke="white" stroke-opacity="0.03" stroke-width="0.640957"/>
<path d="M74.4043 4.6416L74.4043 96.2985" stroke="white" stroke-opacity="0.03" stroke-width="0.640957"/>
<path d="M83.3789 4.6416L83.3789 96.2985" stroke="white" stroke-opacity="0.03" stroke-width="0.640957"/>
<path d="M92.3516 4.6416L92.3516 96.2985" stroke="white" stroke-opacity="0.03" stroke-width="0.640957"/>
<g filter="url(#filter0_f_546_938)">
<circle cx="51" cy="51" r="29" fill="url(#paint0_radial_546_938)"/>
</g>
<path d="M31.0563 68.4578C31.3335 66.9477 32.1566 65.6131 33.2352 64.5596C34.4048 63.4138 35.83 62.6236 37.2855 61.908C40.1315 60.5076 43.3673 59.1731 44.8358 56.1133C45.1477 55.4635 45.3599 54.7612 45.4206 54.0368C45.4899 53.2027 45.3123 52.3555 45.0351 51.574C44.7405 50.7531 44.355 49.9629 44.0128 49.1596C43.6662 48.3386 43.363 47.4914 43.1031 46.6397C42.1284 43.4219 41.8772 39.7387 43.5276 36.7008C44.8748 34.2117 47.4176 32.1967 50.3155 32.2406C53.2872 32.2845 55.8949 34.4927 57.0688 37.1618C57.7706 38.7597 57.9958 40.5596 57.8832 42.298C57.7749 43.975 57.2984 45.5598 56.8046 47.1533C56.5577 47.9435 56.3151 48.7381 56.0855 49.5327C55.8689 50.2878 55.6393 51.0429 55.531 51.8243C55.3101 53.3783 55.3924 55.1563 56.3671 56.4513C57.2118 57.5751 58.533 58.1809 59.7892 58.7033C61.405 59.375 63.0207 60.0467 64.5802 60.8456C65.936 61.5436 67.2702 62.3119 68.3532 63.405C69.3062 64.3664 70.0296 65.5385 70.4151 66.8467C70.5061 67.1628 70.5841 67.4789 70.6447 67.8037C70.7097 68.1681 70.805 68.5412 70.8223 68.9144C70.8267 69.0285 71.0043 69.0285 70.9999 68.9144C70.9783 68.55 70.9956 68.1813 70.9393 67.8213C70.8873 67.4745 70.8093 67.1321 70.714 66.7984C70.5234 66.1531 70.2549 65.5253 69.917 64.9459C69.2196 63.7606 68.2362 62.7816 67.123 62.0002C65.6978 60.9993 64.0734 60.253 62.4923 59.5462C61.7212 59.2038 60.9415 58.8833 60.1574 58.5673C59.4686 58.2907 58.7799 58.0009 58.1388 57.6234C57.5193 57.2634 56.9345 56.8113 56.51 56.2186C56.0249 55.5382 55.7909 54.7041 55.7173 53.8744C55.57 52.1842 56.1288 50.5117 56.601 48.9181C56.8392 48.1191 57.0688 47.3158 57.3114 46.5168C57.5497 45.7354 57.7836 44.9584 57.9352 44.155C58.2557 42.4561 58.2947 40.6913 57.9352 38.9968C57.606 37.4471 56.9345 35.9809 55.9036 34.7824C54.9549 33.6893 53.7333 32.8113 52.3645 32.3504C51.0216 31.8982 49.5618 31.8807 48.2103 32.3153C46.8891 32.7411 45.7065 33.5576 44.7622 34.5761C43.7875 35.6253 43.0424 36.894 42.6049 38.2637C42.0808 39.9143 41.9768 41.6922 42.1544 43.4043C42.3407 45.191 42.8302 46.947 43.5103 48.602C44.1817 50.2395 45.1607 51.8726 45.1477 53.6988C45.1347 55.2923 44.3636 56.7279 43.3067 57.8692C42.1457 59.1248 40.6686 59.972 39.1611 60.7271C36.3455 62.1319 33.0663 63.4357 31.5458 66.4428C31.2296 67.075 31.0433 67.7423 31 68.4491C31 68.4842 31.052 68.4886 31.0563 68.4578Z" fill="#40C5E9"/>
<defs>
<filter id="filter0_f_546_938" x="0" y="0" width="102" height="102" filterUnits="userSpaceOnUse" color-interpolation-filters="sRGB">
<feFlood flood-opacity="0" result="BackgroundImageFix"/>
<feBlend mode="normal" in="SourceGraphic" in2="BackgroundImageFix" result="shape"/>
<feGaussianBlur stdDeviation="11" result="effect1_foregroundBlur_546_938"/>
</filter>
<radialGradient id="paint0_radial_546_938" cx="0" cy="0" r="1" gradientUnits="userSpaceOnUse" gradientTransform="translate(51 51) rotate(90) scale(29)">
<stop stop-color="#D9D9D9" stop-opacity="0.22"/>
<stop offset="1" stop-color="#D9D9D9" stop-opacity="0"/>
</radialGradient>
</defs>
</svg>
