<svg width="60" height="54" viewBox="0 0 60 54" fill="none" xmlns="http://www.w3.org/2000/svg">
<path d="M30.5188 10.2649C31.8125 11.5586 30.2313 14.0743 32.4594 15.0086C32.1 16.0149 31.7407 16.9492 31.3813 17.9555C30.7344 20.0399 31.7407 21.118 33.6813 21.4055C36.3407 21.8368 35.3344 19.7524 35.4782 18.6024C35.9094 15.368 34.8313 12.0618 36.0532 8.8274C38.425 9.47427 40.725 10.193 41.3719 13.068C42.0907 16.3743 44.3188 18.3149 47.2657 19.6086C46.4751 22.6274 47.7688 25.4305 48.1281 28.3055C45.8281 28.2336 44.0313 26.4367 41.7313 26.6523C39.4313 26.7961 39.9344 29.5273 38.2094 30.2461C36.9875 26.4367 35.3344 23.2023 30.5907 23.418C28.7938 21.118 26.8532 23.8493 24.9844 23.2743C24.6251 18.6024 25.9188 14.0742 26.2063 9.40234C26.4938 8.18047 26.7813 6.95859 27.7875 6.16797C29.3688 7.17422 28.7938 9.47427 30.5188 10.2649Z" fill="#56CDFA"/>
<path d="M11.8318 43.9025C11.6162 43.8306 11.4006 43.7588 11.1131 43.7588C11.1131 41.3869 11.1131 39.0151 11.1131 36.5713C11.1131 35.8526 11.2568 34.99 10.3225 34.8463C9.89122 34.7744 9.24434 35.3495 8.88497 35.7088C7.44747 37.4338 6.00995 39.1588 4.64432 40.9557C3.5662 37.7932 2.63182 34.6307 1.40995 31.6119C0.331824 29.0244 0.7631 27.7307 3.6381 27.5151C4.2131 27.4432 4.7881 27.3713 5.43497 27.2994C6.87247 26.8682 8.30996 26.365 9.81933 25.9338C10.035 25.7181 10.2506 25.5025 10.4662 25.215C12.91 25.7181 15.1381 24.3526 17.51 24.5682C14.5631 27.9463 13.5568 31.8994 13.9881 36.3556C14.2037 38.2244 13.9881 40.0932 13.9881 42.0338C13.8443 43.2557 13.0537 43.8306 11.8318 43.9025Z" fill="#DA98F4"/>
<path d="M44.1031 46.7765C44.2469 47.3515 44.2469 47.9984 44.6062 48.4297C46.0437 50.2266 45.4687 50.8735 43.3844 51.2328C39.3594 52.0235 35.6219 53.8203 31.4531 53.8922C32.6031 48.5015 32.8187 42.9672 33.4656 37.5766C33.7531 35.7797 33.9687 33.9828 34.2562 32.2578C34.9031 32.9766 35.55 33.7672 36.125 34.4859C38.6406 38.6547 40.5812 43.1828 44.1031 46.7765Z" fill="#DA98F4"/>
<path d="M48.2 28.3056C47.8406 25.4306 46.5468 22.6275 47.3374 19.6088C49.2781 20.4713 50.9312 22.0525 53.7343 21.9806C52.0093 19.465 51.9374 16.4462 49.1343 15.0806C55.6031 12.4212 55.6031 12.4213 57.6875 18.8182C57.7593 18.9619 57.7593 19.0338 57.7593 19.1775C60.0593 26.4369 60.0593 26.4369 54.1656 31.0369C52.0812 30.3182 49.9968 29.5275 48.2 28.3056Z" fill="#BD61F7"/>
<path d="M48.1996 28.3039C49.9965 29.5977 52.0809 30.3164 54.1652 30.9633C59.1246 33.9101 59.1965 33.982 55.9621 39.0852C54.5965 41.2414 53.9496 43.8289 51.6496 45.3383C49.9246 41.0258 47.6965 37.0008 45.2527 33.0477C44.1027 30.8914 42.9527 28.807 41.8027 26.6508C44.1027 26.4351 45.8996 28.232 48.1996 28.3039Z" fill="#DA98F4"/>
<path d="M27.7875 51.8078C26.4218 52.5265 25.1281 53.4609 23.4031 53.1734C24.1937 48.5734 22.8281 45.0516 18.2281 43.3984C16.5031 42.7516 16.0719 41.7453 16 40.2359C18.3 37.6484 20.6 35.1328 22.9 32.5453C23.2594 32.3297 23.6187 32.1141 23.9781 31.8984C23.9781 33.1922 24.1218 34.486 24.05 35.7797C23.9781 41.386 25.2 46.7047 27.7875 51.8078Z" fill="#DA98F4"/>
<path d="M1.55273 20.1104C3.49336 16.876 5.434 13.6417 7.23088 10.3354C8.0215 8.82607 8.74026 8.96978 9.89026 9.76041C11.9746 11.126 14.1309 12.2761 16.2871 13.498C16.7184 14.0011 17.2215 14.4323 17.9402 14.4323C18.2996 15.3667 17.7246 15.5823 17.0059 15.7979C15.1371 16.3729 13.2684 16.8042 11.6152 17.8823C8.02148 17.8823 5.00273 19.9667 1.55273 20.1104Z" fill="#DA98F4"/>
<path d="M16.0005 40.1641C16.0724 41.6734 16.5036 42.7516 18.2286 43.3266C22.7568 44.9797 24.1943 48.5734 23.4036 53.1016C18.6599 52.7422 14.9943 49.6516 11.0411 47.5672C9.02863 46.561 12.9099 45.4828 11.9036 43.9015C13.0536 43.7578 13.9161 43.2547 13.988 41.9609C14.6349 41.3859 15.3537 40.7391 16.0005 40.1641Z" fill="#BD61F7"/>
<path d="M49.1344 15.0803C51.9375 16.4459 52.0094 19.4647 53.7344 21.9803C51.0031 22.0522 49.2781 20.471 47.3375 19.6085C44.3187 18.3866 42.0906 16.3741 41.4437 13.0679C40.7968 10.1929 38.5688 9.40222 36.125 8.82722C36.1969 8.10847 36.2687 7.38972 36.3406 6.67097C36.8437 6.02409 36.7718 4.37091 38.0656 5.08966C40.4375 6.38341 43.3844 7.03032 44.2469 10.3366C44.75 12.3491 45.4687 14.3615 47.7687 15.1522C48.2 15.0803 48.6312 15.0803 49.1344 15.0803Z" fill="#DA98F4"/>
<path d="M30.5199 10.2651C28.7949 9.47448 29.3699 7.24631 27.7168 6.16818C26.6387 6.95881 26.423 8.25256 26.1355 9.40256C24.698 8.82756 23.3324 8.18068 21.8949 7.60568C19.6668 6.16818 17.2949 5.09009 14.7793 4.22759C18.7324 1.99947 23.3324 1.78384 27.5012 0.274467C28.6512 -0.156783 28.9386 0.490057 29.0824 1.49631C29.5136 4.44318 30.0168 7.31823 30.5199 10.2651Z" fill="#DA98F4"/>
<path d="M47.6973 15.151C45.3973 14.3604 44.6785 12.276 44.1754 10.3354C43.3129 7.02916 40.4379 6.38225 37.9941 5.0885C36.7004 4.36975 36.7722 6.02292 36.2691 6.6698C35.9816 6.6698 35.766 6.59794 35.4785 6.59794C36.5566 0.272941 36.5566 0.272923 42.1629 3.07605C44.6785 4.3698 48.2004 5.08851 49.4941 7.17289C51.0035 9.40101 47.9129 12.276 47.6973 15.151Z" fill="#BD61F7"/>
<path d="M27.7883 51.8082C25.2008 46.7769 23.9789 41.3864 24.1227 35.7083C24.1946 34.4145 24.0508 33.1208 24.0508 31.7551C25.9914 31.1801 25.5602 33.6958 26.8539 33.9114C27.7883 35.1333 28.7227 36.427 29.6571 37.6488C30.0883 41.027 28.5789 44.2613 29.082 47.7113C28.507 48.9332 28.4352 50.2988 28.4352 51.6645L28.1477 51.8082H27.7883Z" fill="#56CDFA"/>
<path d="M1.55303 20.1112C5.00303 19.9674 8.09367 17.8831 11.5437 17.9549C11.3999 20.3987 10.1062 22.6987 10.4655 25.2143C10.2499 25.4299 10.0343 25.6455 9.81866 25.933C8.38116 26.3643 6.94367 26.8674 5.4343 27.2987C6.22492 25.3581 3.99679 24.9268 3.49367 23.6331C2.91867 22.4112 0.762407 22.0518 1.55303 20.1112Z" fill="#BD61F7"/>
<path d="M45.1809 33.0488C47.6246 37.002 49.8528 41.0269 51.5778 45.3394C49.134 46.2738 46.6184 46.5613 44.0309 46.7769V46.7051C43.959 42.177 44.6059 37.577 45.1809 33.0488Z" fill="#BD61F7"/>
<path d="M14.7793 4.22656C17.2949 5.16094 19.6668 6.23903 21.8949 7.60465C20.6011 9.90465 20.1699 12.7078 17.8699 14.5047C17.1512 14.5047 16.648 14.0734 16.2168 13.5703C15.7855 10.4078 15.2824 7.31719 14.7793 4.22656Z" fill="#BD61F7"/>
<path d="M35.478 6.52734C35.7655 6.52734 35.9811 6.59929 36.2686 6.59929C36.1968 7.31804 36.1249 8.03679 36.053 8.75554C34.8311 11.9899 35.9093 15.2961 35.478 18.5305C35.3343 19.6805 36.3405 21.7649 33.6812 21.3337C31.7405 20.9743 30.7343 19.968 31.3811 17.8836C31.6686 16.8774 32.0999 15.8711 32.4593 14.9368C32.8905 12.6368 33.5374 10.4086 34.7593 8.32422C35.4062 7.89297 35.7655 7.31797 35.478 6.52734Z" fill="#26AEF5"/>
<path d="M28.4355 51.6637C28.4355 50.298 28.5074 49.0043 29.0824 47.7105C31.4543 44.6918 31.3824 40.7387 33.3949 37.5762C32.748 43.0387 32.5324 48.5011 31.3824 53.8918C30.3762 53.173 29.3699 52.4543 28.4355 51.6637Z" fill="#BD61F7"/>
<path d="M4.64453 41.0264C6.08203 39.3014 7.44767 37.5046 8.88517 35.7796C9.24455 35.3484 9.89142 34.8452 10.3227 34.9171C11.257 34.9889 11.1133 35.9233 11.1133 36.6421C11.1133 39.014 11.1133 41.3858 11.1133 43.8296C8.88516 43.039 6.44141 42.7514 4.64453 41.0264Z" fill="#BD61F7"/>
<path d="M35.55 6.52734C35.7656 7.31797 35.4781 7.89304 34.8313 8.39616C34.8313 7.67741 34.6875 6.88672 35.55 6.52734Z" fill="#BD61F7"/>
<path d="M17.9405 14.5055C20.2405 12.7805 20.6718 9.97734 21.9655 7.60547C23.403 8.18047 24.7686 8.82734 26.2061 9.40234C25.9905 14.0023 24.6968 18.6024 24.9843 23.2743H24.9124C22.0374 21.9805 21.7499 18.3148 18.8749 16.2305C19.2343 19.4648 21.3905 22.6993 17.5093 24.568C15.1374 24.4243 12.9093 25.718 10.4655 25.2148C10.178 22.6992 11.3999 20.3992 11.5436 17.9555C13.1968 16.8774 15.0655 16.4461 16.9343 15.8711C17.7249 15.6555 18.2999 15.4399 17.9405 14.5055Z" fill="#26AEF5"/>
<path d="M45.1809 33.0492C44.534 37.5774 43.959 42.1773 44.1027 46.7773C40.5809 43.2555 38.5684 38.6555 36.0527 34.4867C36.3402 33.768 36.5559 33.1211 36.8434 32.4023C37.7778 31.9711 37.9215 31.0367 38.209 30.2461C39.934 29.5992 39.4309 26.7961 41.7309 26.6523C42.8809 28.8086 44.0309 30.893 45.1809 33.0492Z" fill="#26AEF5"/>
<path d="M26.8532 33.9108C25.5595 33.6952 25.9907 31.1796 24.0501 31.7546C23.6907 31.9702 23.3313 32.1858 22.9719 32.4014C20.6001 28.6639 23.547 26.0765 24.9126 23.2015H24.9845C26.8532 23.7765 28.7938 21.0452 30.5907 23.3452C31.3813 24.3514 31.1657 25.6452 31.2376 26.7952C30.6626 28.5921 28.2188 32.5452 26.8532 33.9108Z" fill="#D6D6D6"/>
<path d="M31.2386 26.8665C31.1668 25.7165 31.3824 24.4227 30.5918 23.4164C35.4074 23.2008 37.0605 26.4352 38.2105 30.2446C37.8512 31.0352 37.7074 31.9696 36.8449 32.4008C35.4074 30.1008 34.1136 27.6571 31.2386 26.8665Z" fill="#BBBBBB"/>
<path d="M24.9131 23.2738C23.5475 26.2207 20.6006 28.7364 22.9724 32.4739C20.6724 35.0614 18.3725 37.577 16.0725 40.1645C15.3537 40.7395 14.7068 41.3863 13.9881 41.9613C13.9881 40.0926 14.2037 38.152 13.9881 36.2832C13.4849 31.827 14.5631 27.9457 17.51 24.4957C21.3912 22.5551 19.235 19.3926 18.8756 16.1582C21.7506 18.3145 22.0381 21.9082 24.9131 23.2738Z" fill="#56CDFA"/>
<path d="M31.2383 26.8672C34.1133 27.7297 35.4071 30.1015 36.8446 32.4015C36.5571 33.1203 36.3414 33.7672 36.0539 34.4859C35.407 33.7672 34.7602 32.9766 34.1852 32.2578C31.9571 33.4797 31.3102 35.9953 29.7289 37.7203C28.7945 36.4984 27.8602 35.2047 26.9258 33.9828C28.2195 32.5453 30.6633 28.5922 31.2383 26.8672Z" fill="#E9E859"/>
<path d="M29.6569 37.7203C31.2381 35.9953 31.885 33.4797 34.1131 32.2578C33.8256 34.0547 33.61 35.8516 33.3225 37.5766C31.3819 40.7391 31.3819 44.6922 29.01 47.7109C28.5787 44.3328 30.0881 41.0984 29.6569 37.7203Z" fill="#26AEF5"/>
</svg>
