<svg width="56" height="65" viewBox="0 0 56 65" fill="none" xmlns="http://www.w3.org/2000/svg">
<path d="M1.34406 33.2518C-0.0215659 30.6643 1.77528 28.8675 3.06903 27.2144C8.24403 20.0987 13.5628 13.1268 18.8097 6.0831C19.3847 5.36435 20.1034 4.43 20.1034 3.63937C20.1753 0.836247 21.5409 -0.529413 24.1284 0.189337C26.7159 0.836212 27.2191 2.84871 26.1409 5.22059C22.9784 4.71746 20.2472 4.78935 19.6003 8.9581C19.3847 10.3956 18.1628 11.6175 16.9409 12.6237C14.8565 14.4206 13.7065 16.9362 12.1972 19.2362C11.694 20.0268 11.2628 21.0331 11.9096 21.8956C12.7721 22.9737 13.5628 21.9675 14.3534 21.4644C15.5034 20.6737 17.0128 20.3862 17.8753 19.1644C18.2347 18.8769 18.3065 18.5175 18.019 18.1581L17.9472 18.23C18.6659 18.4456 19.0971 18.3737 18.7378 17.5112C18.9534 17.5831 19.169 17.5831 19.3847 17.655C19.4565 17.3675 19.4565 17.08 19.5284 16.7925H19.6003C22.1878 16.7206 23.4097 14.4206 25.3503 13.3425C27.219 12.3362 28.944 10.9706 30.8847 10.1081C33.8315 8.81437 35.2691 9.74873 36.2034 13.055C29.1597 15.2831 22.7628 18.9487 16.5097 22.83C11.4065 26.0643 7.59718 31.455 1.34406 33.2518Z" fill="#DA98F4"/>
<path d="M38.1434 36.7731C41.4496 35.7668 43.6059 32.9637 46.5527 31.3824C48.2059 30.5199 49.6434 29.0824 51.7277 29.6574C51.7277 31.0231 50.5777 31.6699 49.7871 32.5324C45.834 37.2762 40.7309 40.5824 35.2684 43.2418C32.8965 43.3856 32.1777 45.8293 30.3809 46.7637C27.7215 45.9731 25.709 47.1231 23.6965 48.6324C22.834 49.2793 22.0434 50.3574 20.6777 50.2856C21.3965 46.5481 24.4152 44.1762 26.284 41.1574C27.7215 38.9293 29.9496 37.2043 30.884 34.6168V34.6887C31.459 34.7606 31.6027 34.4012 31.6746 33.8981L31.6027 33.9699C32.1777 33.8262 32.3215 33.3231 32.3934 32.8199C32.8246 32.4606 33.2559 32.1012 33.6871 31.7418C32.8246 34.6887 33.759 37.42 34.7653 40.1512C35.7715 39.5043 36.7777 38.9293 36.9934 37.6356C37.9996 38.2106 38.1434 37.4918 38.1434 36.7731Z" fill="#D6D6D6"/>
<path d="M33.6871 31.6707C33.2559 32.0301 32.8246 32.3894 32.3934 32.7488C31.8902 32.9644 31.0277 32.9644 31.6027 33.8988L31.6746 33.8269C31.3871 33.8269 31.0996 33.8269 30.884 33.8269C30.884 34.1144 30.884 34.4019 30.9559 34.6176V34.5457C30.4527 33.6113 29.9496 34.5457 29.4465 34.5457C26.4996 35.4801 23.6246 36.4144 20.6777 37.4207C21.5402 34.6894 25.2777 33.755 25.134 30.3769C25.9965 29.8738 26.7871 29.3707 26.9309 28.2207L27.0027 28.1488C27.9371 28.6519 28.2246 28.2926 28.1528 27.3582L28.0809 27.4301C28.8715 27.7176 29.3027 27.6457 28.7996 26.6394C30.9559 27.0707 31.8184 24.9863 33.3278 24.1238C35.484 22.9019 37.4246 21.3207 39.5809 20.0988C41.3777 19.0207 43.4621 18.5176 45.1152 20.2426C46.6965 21.8238 46.2653 23.6926 45.1871 25.4176C40.084 25.2019 37.3528 29.2988 33.6871 31.6707Z" fill="#DA98F4"/>
<path d="M1.34375 33.2515C7.59687 31.4547 11.3343 26.064 16.5812 22.8297C22.8343 18.9484 29.1594 15.2828 36.275 13.0547C36.275 15.7859 34.6219 17.7266 33.0406 19.6672C31.2437 21.1766 29.2312 19.9547 27.3625 20.1703C26.7875 20.2422 26.2125 20.3141 25.925 20.9609C24.3437 21.3203 23.5531 22.5422 22.7625 23.7641C21.9719 23.4047 21.4687 23.5484 21.6844 24.5547L21.7562 24.4828C21.4687 24.4828 21.1812 24.3391 20.9656 24.4828C20.4625 24.6985 20.9656 24.9859 21.0375 25.2734C20.75 25.2016 20.6062 24.8422 20.2469 25.2016C19.8875 25.561 20.3187 25.7766 20.3187 25.9922H20.3906C18.8813 24.6984 18.3781 26.4953 17.5875 26.9985C14.1375 29.3703 10.9031 31.9578 7.45312 34.2578C5.225 35.6234 2.85312 36.414 1.34375 33.2515Z" fill="#BD61F7"/>
<path d="M41.5223 54.023C42.816 55.173 43.8223 56.4668 43.0317 58.3355C40.0129 55.6043 38.0723 58.2637 35.8442 59.773C34.1192 61.2824 32.1066 60.8512 30.166 60.4199C30.741 56.8262 33.4723 54.4543 35.4129 51.6512C37.2098 48.9918 39.1504 46.4762 41.0191 43.8887L40.9473 43.9605C41.3066 43.673 41.666 43.4574 42.0254 43.1699H42.0972C42.8879 46.0449 41.7379 48.6324 40.9473 51.2918C40.7316 52.1543 39.366 53.5199 41.5223 54.023Z" fill="#D6D6D6"/>
<path d="M17.8754 19.0215C17.0129 20.2434 15.5035 20.5309 14.3535 21.3215C13.6347 21.8247 12.8441 22.8309 11.9097 21.7528C11.191 20.8903 11.6222 19.8841 12.1972 19.0934C13.7066 16.7934 14.8566 14.3497 16.941 12.4809C18.091 11.4028 19.3847 10.2528 19.6003 8.81526C20.3191 4.64651 22.9785 4.57467 26.141 5.0778C25.2066 8.38405 22.7628 10.684 21.0378 13.4871C20.4628 14.4215 18.8097 14.9965 19.5285 16.6497H19.4566C18.5941 16.2903 18.666 16.7934 18.7378 17.3684C18.091 17.2247 17.9472 17.584 17.9472 18.0872L18.0191 18.0153C17.8035 18.1591 17.516 18.3028 17.3003 18.4465C17.516 18.6622 17.7316 18.8778 17.8754 19.0215Z" fill="#BD61F7"/>
<path d="M41.523 54.0236C39.4386 53.5205 40.7324 52.1549 41.0199 51.2924C41.8105 48.633 42.9605 46.0455 42.1699 43.1705C42.2418 42.9549 42.3855 42.8112 42.6011 42.6674C42.673 42.9549 42.7449 43.0268 42.8887 42.7393C42.8168 42.6674 42.7449 42.6674 42.673 42.5955C42.8887 42.3799 43.1043 42.0924 43.3199 41.8768C43.3199 42.1643 43.4637 42.2362 43.6074 41.9487C43.6074 41.9487 43.4637 41.8049 43.3918 41.8049C43.4637 41.5893 43.6074 41.4455 43.7512 41.2299C44.6855 41.5174 44.4699 40.7986 44.5418 40.3674C46.123 39.2893 47.6324 38.1393 49.2137 37.0612C50.0762 36.4862 51.1543 35.4799 52.0886 35.9111C53.1668 36.4861 52.3761 37.8518 52.5199 38.858C49.3574 44.2487 44.8293 48.7049 41.523 54.0236Z" fill="#E9E859"/>
<path d="M52.448 38.8582C52.3043 37.852 53.0949 36.4145 52.0168 35.9113C51.0824 35.4082 50.0043 36.4145 49.1418 37.0614C47.5606 38.1395 46.0512 39.2895 44.4699 40.3676C44.1824 40.6551 43.9668 40.9426 43.6793 41.2301C43.5355 41.3739 43.3918 41.5895 43.3199 41.8051L43.248 41.877C43.0324 42.0926 42.8168 42.3801 42.6012 42.5957L42.5293 42.6676C42.3137 42.8114 42.1699 42.9551 42.098 43.1707H42.0262C41.7387 43.0989 41.4512 42.8113 41.2356 42.8832C40.7324 43.027 40.8043 43.5301 40.948 43.9613L41.0199 43.8895C40.5886 43.027 40.0136 43.8176 39.5824 43.8176C38.1449 43.602 36.4199 45.9738 35.3418 43.2426C40.8762 40.5832 45.9074 37.277 49.8606 32.5332C50.5793 31.6707 51.8011 31.0238 51.8011 29.6582C55.4668 29.6582 56.6887 31.3832 55.1793 34.6895C54.4605 36.127 53.3824 37.4207 52.448 38.8582Z" fill="#DA98F4"/>
<path d="M33.6874 31.6702C37.3531 29.3702 40.0124 25.2015 45.1155 25.5609C43.5343 29.8015 39.653 32.6046 38.1437 36.8452V36.7734C37.4249 36.4859 37.2812 37.1327 36.9937 37.4921C36.778 38.7859 35.7718 39.4327 34.7656 40.0077C33.7593 37.3484 32.8249 34.6171 33.6874 31.6702Z" fill="#E9E859"/>
<path d="M20.75 50.2855C22.0437 50.3574 22.9062 49.2792 23.7687 48.6324C25.7812 47.0511 27.8656 45.973 30.4531 46.7636C30.9562 49.2793 32.9687 47.6261 34.1906 48.1292C31.7468 50.4292 29.0156 52.4418 26.0687 53.9511C22.9781 55.5324 21.4688 54.6698 20.3906 51.2198C20.5344 50.9323 20.75 50.6449 20.8937 50.3574L20.75 50.2855Z" fill="#E9E859"/>
<path d="M22.6902 23.7641C23.4809 22.5422 24.3434 21.3203 25.8527 20.9609C25.4215 23.4047 26.5715 24.6984 28.7996 25.3453C28.7277 25.7765 28.1527 26.2078 28.7277 26.7109C27.9371 26.4234 27.8652 26.8547 28.009 27.5015L28.0809 27.4297C27.434 27.2859 27.2184 27.789 26.9309 28.2203L26.859 28.2922C23.8403 27.7172 21.9715 29.7297 20.1027 31.5266C18.3059 33.2516 16.4371 34.9047 13.8496 35.4078C15.6465 32.1015 18.809 29.7297 20.1746 26.064H20.1027C20.8215 26.2797 20.8934 25.8484 20.8215 25.3453C21.3965 25.4172 21.5402 25.0578 21.5402 24.5547L21.4684 24.6265C21.9715 24.339 22.3309 24.0516 22.6902 23.7641Z" fill="#D6D6D6"/>
<path d="M25.1357 30.3047C25.3513 33.6828 21.6138 34.6172 20.6794 37.3484C19.1701 38.2109 17.517 39.0016 17.0138 40.8703C15.1451 42.0203 13.1326 42.5953 10.9045 42.3797C10.4013 40.7984 11.1201 39.5765 11.8388 38.2828C13.2045 39.289 14.2107 38.4984 15.2888 37.7078C18.5232 35.2641 21.8295 32.8203 25.1357 30.3047Z" fill="#EDEDED"/>
<path d="M25.1348 30.3052C21.8285 32.8208 18.5941 35.2645 15.2879 37.7802C14.2098 38.6427 13.2035 39.3614 11.8379 38.3552C12.5566 37.3489 13.2754 36.2708 13.9223 35.2645C16.5098 34.7614 18.3066 33.1083 20.1754 31.3833C22.0441 29.5864 23.9129 27.5739 26.9316 28.1489C26.7879 29.2989 25.9973 29.802 25.1348 30.3052Z" fill="#E9E859"/>
<path d="M10.9043 42.4527C13.1324 42.6684 15.1449 42.0933 17.0137 40.9433C18.6668 41.4465 20.1043 40.0808 21.7574 40.3683C20.1043 42.2371 18.0199 43.6027 15.7918 44.5371C13.5637 45.4715 11.623 45.2559 10.9043 42.4527Z" fill="#E9E859"/>
<path d="M30.166 60.4203C32.1066 60.8516 34.1192 61.3547 35.8442 59.7734C35.7004 61.2828 36.3473 62.1453 38.0004 62.0734C36.9942 62.6484 36.0598 63.4391 35.0535 63.8703C32.0348 65.0922 30.4535 63.8703 30.166 60.4203Z" fill="#E9E859"/>
<path d="M21.7574 40.3668C20.1043 40.0793 18.6668 41.4449 17.0137 40.9418C17.5887 39.073 19.1699 38.2824 20.6793 37.4199C23.6262 36.4855 26.5012 35.5512 29.448 34.5449C27.7949 36.2699 25.8543 37.7793 23.7699 38.9293C23.1949 39.0012 22.6199 39.1449 22.4043 39.7918L22.5481 39.7199C22.2606 39.9355 21.973 40.223 21.6136 40.4386L21.7574 40.3668Z" fill="#BBBBBB"/>
<path d="M28.8724 25.3461C26.6442 24.6992 25.4942 23.4055 25.9255 20.9617C26.5723 21.0336 27.0755 20.8899 27.363 20.1711C29.2317 19.9555 31.3161 21.1773 33.0411 19.668C31.8911 21.6805 30.5974 23.6929 28.8724 25.3461Z" fill="#BBBBBB"/>
<path d="M34.1184 48.1297C32.8965 47.5547 30.884 49.2797 30.3809 46.7641C32.1777 45.8297 32.8965 43.4578 35.2684 43.2422C36.3465 45.9734 38.0715 43.6734 39.509 43.8172C37.9996 45.6141 36.059 46.9078 34.1184 48.1297Z" fill="#BBBBBB"/>
<path d="M37.9995 62.0746C36.4183 62.1465 35.7714 61.284 35.8433 59.7746C37.9995 58.2652 40.012 55.6059 43.0308 58.3371C41.5933 59.9184 39.7964 61.0684 37.9995 62.0746Z" fill="#BD61F7"/>
<path d="M22.4043 39.7922C22.6199 39.1453 23.1949 39.0016 23.7699 38.9297C23.4824 39.5047 22.9793 39.7922 22.4043 39.7922Z" fill="#E9E859"/>
<path d="M20.8214 50.2852C20.6777 50.5727 20.462 50.8602 20.3183 51.1477C20.3183 50.7883 20.1746 50.357 20.8214 50.2852Z" fill="#D6D6D6"/>
<path d="M21.6133 40.4395C21.9008 40.2238 22.1883 39.9363 22.5477 39.7207C22.4039 40.2238 22.1164 40.4395 21.6133 40.4395Z" fill="#E9E859"/>
<path d="M17.8758 19.0199C17.6602 18.8043 17.5164 18.5887 17.3008 18.4449C17.5164 18.3012 17.8039 18.1574 18.0195 18.0137C18.307 18.4449 18.2352 18.8043 17.8758 19.0199Z" fill="#1A1A1A"/>
<path d="M18.0195 18.0867C18.0195 17.5117 18.0914 17.1523 18.8102 17.3679C19.1696 18.2304 18.7383 18.3023 18.0195 18.0867Z" fill="#1A1A1A"/>
<path d="M18.7384 17.3668C18.6666 16.7918 18.6666 16.2887 19.4572 16.6481C19.4572 16.9356 19.3853 17.2231 19.3135 17.5106C19.1697 17.5106 18.9541 17.4387 18.7384 17.3668Z" fill="#1A1A1A"/>
<path d="M36.9941 37.4914C37.2816 37.0602 37.4254 36.4133 38.1441 36.7727C38.1441 37.4914 38.0004 38.2102 36.9941 37.4914Z" fill="#1A1A1A"/>
<path d="M30.9566 34.6168C30.9566 34.3293 30.9566 34.0418 30.8848 33.8262C31.1723 33.8262 31.4597 33.8262 31.6754 33.8262C31.6754 34.3293 31.4597 34.6887 30.9566 34.6168Z" fill="#1A1A1A"/>
<path d="M31.6749 33.898C31.0999 32.9637 31.9624 32.9637 32.4656 32.748C32.3937 33.2512 32.2499 33.7543 31.6749 33.898Z" fill="#1A1A1A"/>
<path d="M26.9316 28.1477C27.2191 27.7164 27.4347 27.2133 28.0816 27.3571C28.1535 28.2915 27.866 28.6508 26.9316 28.1477Z" fill="#1A1A1A"/>
<path d="M28.0099 27.4306C27.938 26.8556 27.938 26.3525 28.7287 26.64C29.3037 27.6463 28.8005 27.7181 28.0099 27.4306Z" fill="#1A1A1A"/>
<path d="M27.3633 20.1699C27.1477 20.8168 26.5727 21.0324 25.9258 20.9605C26.2133 20.3137 26.7883 20.1699 27.3633 20.1699Z" fill="#D6D6D6"/>
<path d="M20.9654 25.274C21.0373 25.7771 20.9654 26.2083 20.2467 25.9927C20.1748 25.7052 19.8154 25.5615 20.1748 25.2021C20.5341 24.8427 20.6779 25.2021 20.9654 25.274Z" fill="#1A1A1A"/>
<path d="M21.6845 24.5541C21.6845 25.0572 21.5408 25.4166 20.9658 25.3447C20.9658 25.0572 20.3908 24.8416 20.8939 24.5541C21.0376 24.4104 21.397 24.5541 21.6845 24.5541Z" fill="#1A1A1A"/>
<path d="M22.6907 23.764C22.3313 24.0515 21.972 24.2671 21.6126 24.5546C21.397 23.5483 21.9001 23.4765 22.6907 23.764Z" fill="#1A1A1A"/>
<path d="M40.9465 43.9615C40.8747 43.5303 40.7309 43.099 41.234 42.8834C41.4497 42.8115 41.7372 43.0272 42.0247 43.1709C41.7372 43.4584 41.3059 43.674 40.9465 43.9615Z" fill="#1A1A1A"/>
<path d="M43.75 41.2297C44.0375 40.9422 44.2531 40.6547 44.5406 40.3672C44.3969 40.7266 44.6125 41.4453 43.75 41.2297Z" fill="#D6D6D6"/>
<path d="M42.5996 42.5957C42.7434 42.5957 42.8153 42.5957 42.8871 42.6676C42.6715 42.9551 42.5996 42.9551 42.5996 42.5957Z" fill="#D6D6D6"/>
<path d="M43.248 41.8765L43.3199 41.8047C43.3918 41.8766 43.5355 41.9484 43.5355 41.9484C43.3918 42.2359 43.248 42.164 43.248 41.8765Z" fill="#D6D6D6"/>
</svg>
