<svg width="60" height="59" viewBox="0 0 60 59" fill="none" xmlns="http://www.w3.org/2000/svg">
<path d="M10.395 15.4696C9.31683 13.6727 6.51373 11.6602 7.95123 10.0789C9.53248 8.35393 11.9044 10.9415 13.845 11.9477C15.4981 12.8102 17.0075 13.9602 18.9481 15.2539C19.4512 12.4508 19.8106 9.93517 20.3137 7.41955C20.5294 6.26955 20.8887 5.11958 21.3919 4.04146C23.4762 -0.486666 26.9981 -1.2773 29.7293 2.81958C32.0293 6.26958 33.97 6.34144 37.7075 5.19144C46.62 2.46019 52.5137 7.41958 51.8668 16.8352C51.6512 19.4946 52.0825 21.0039 54.5262 22.5133C61.0668 26.682 60.995 32.2883 54.5981 36.7446C52.2262 38.3977 49.5669 39.4039 46.7637 40.4102C48.345 42.7102 49.9262 44.7945 51.2918 46.9508C51.7231 47.5977 52.4418 48.3883 51.6512 49.1789C50.9325 49.8977 49.9981 49.4664 49.2794 49.107C47.6981 48.3883 46.045 47.5977 44.7512 46.3039C45.0387 43.7883 43.3856 42.6383 41.5887 41.5602C36.7012 36.0977 31.3825 31.0664 25.7762 26.4664C25.2012 25.8195 24.77 24.8133 23.4044 24.8133C23.6919 28.9821 24.4825 33.0789 25.4887 37.0321C26.6387 41.5602 28.0043 46.0164 30.8793 49.8258C33.6106 53.4914 36.1262 53.1321 37.9231 48.8914C38.7137 47.0227 39.2168 45.0102 39.0731 42.9977C39.5043 43.2133 39.9356 43.5008 40.3668 43.7164H40.295C39.72 47.2383 39.7918 50.9039 38.3543 54.2821C37.5637 56.2946 36.7731 58.4508 34.3294 58.8821C31.8137 59.3133 30.0887 57.7321 29.0825 55.8633C27.5012 52.7727 25.7762 52.7727 22.6856 53.7789C13.1262 57.0852 7.08873 52.4133 7.59186 42.3508C7.73561 39.6196 7.16059 38.1821 4.78871 36.6727C-1.60816 32.5758 -1.53629 27.0414 4.64496 22.6571C7.08871 20.8602 10.0356 20.1414 12.6231 18.7039C13.7012 18.6321 14.7794 18.7758 15.4981 17.6977C12.2637 14.9665 12.2637 14.9664 10.395 15.4696ZM18.3731 26.4664C17.2231 26.4664 16.5762 27.0414 16.145 27.9758C13.4137 33.7977 10.4668 39.6196 12.4793 46.3758C13.4137 49.4664 15.7137 51.1196 18.7325 51.4071C20.8887 51.6227 23.62 52.5571 24.77 49.3946C24.6262 48.8196 24.5543 48.1727 24.4106 47.5977C24.3387 47.4539 24.2668 47.3102 24.0512 47.2383H24.1231C22.3262 41.2008 20.8887 35.0196 19.6668 28.7664C19.6668 28.0477 19.595 27.2571 19.595 26.5383C19.6669 25.8196 19.6669 24.8852 18.8762 24.8852C17.87 24.8852 18.445 25.8914 18.3731 26.4664ZM47.9856 18.9915C48.2731 18.9196 48.8481 18.9914 48.92 18.8477C50.5731 14.8227 47.1231 9.57582 42.8106 9.14457C35.9825 8.49769 31.0231 12.0195 25.4887 16.4039C27.2856 16.4039 28.22 16.4039 29.1544 16.4039C35.4794 16.4039 41.7325 17.6258 47.9856 18.9915ZM28.1481 22.729C33.7543 27.904 39.3606 33.0071 44.9669 38.1821C46.6919 38.9727 47.6981 38.8289 50.07 37.2477C56.395 33.2227 56.4669 28.1914 49.9981 24.3821C42.3794 19.9258 33.97 19.4946 24.77 20.2133C26.2075 21.3633 27.1418 22.0821 28.1481 22.729ZM14.1325 23.6633C11.1137 24.2383 9.46059 25.5321 8.02309 26.8977C6.08246 28.6946 5.72308 31.0664 6.80121 33.4383C7.30433 34.5164 8.31058 35.6664 9.31683 33.7258C10.8262 30.5633 12.3356 27.3289 14.1325 23.6633ZM23.62 12.9539C25.5606 11.5883 27.07 10.5102 28.5794 9.43208C29.37 8.85708 30.8793 8.49769 30.6637 7.34769C30.52 6.41332 29.37 5.6227 28.3637 5.3352C27.07 4.97583 25.9919 5.55082 25.345 6.62894C24.2669 8.28207 23.5481 10.1508 23.62 12.9539Z" fill="#26AEF5"/>
<path d="M10.3945 15.4698C12.2633 14.9667 12.2633 14.9667 15.4977 17.5542C14.7789 18.6323 13.6289 18.4885 12.6227 18.5604C11.9039 17.5542 11.1133 16.5479 10.3945 15.4698Z" fill="#6D6D6D"/>
<path d="M41.5887 41.6328C43.3137 42.7828 45.0387 43.9328 44.7512 46.3765C43.2418 45.514 41.8043 44.5797 40.2949 43.7172H40.3668C41.8762 43.6453 41.373 42.4234 41.5887 41.6328Z" fill="#BBBBBB"/>
<path d="M44.9653 38.1832C39.359 33.0082 33.7527 27.9051 28.1465 22.7301C35.909 21.2926 42.9527 23.0895 49.2059 27.6895C51.5059 29.3426 51.3621 32.5051 49.2778 34.5895C47.984 35.9551 46.4028 37.0332 44.9653 38.1832Z" fill="#E9E859"/>
<path d="M41.5879 41.632C41.3004 42.4227 41.8754 43.6445 40.366 43.7164C39.9348 43.5008 39.5035 43.2133 39.0723 42.9976C37.9223 41.7758 37.7066 42.9258 37.491 43.6445C36.8441 45.2977 36.4848 47.2383 34.1848 47.2383C32.0285 47.2383 31.3816 45.3695 30.5191 43.7883C27.5004 38.3977 26.566 32.432 25.7754 26.3945C31.4535 31.1383 36.7004 36.1695 41.5879 41.632Z" fill="#E9E859"/>
<path d="M44.9668 38.1818C46.4043 37.0318 47.9855 35.9537 49.2793 34.588C51.3637 32.5037 51.5074 29.3411 49.2074 27.688C42.9543 23.088 35.8387 21.2912 28.148 22.7287C27.2137 22.0099 26.2793 21.363 24.8418 20.2849C34.0418 19.5661 42.3793 19.9974 50.0699 24.4536C56.5387 28.1911 56.4668 33.2943 50.1418 37.3193C47.6262 38.8287 46.6918 39.0443 44.9668 38.1818Z" fill="#56CDFA"/>
<path d="M25.7762 26.4677C26.5668 32.5052 27.4293 38.4708 30.5199 43.8614C31.3824 45.3708 32.0293 47.3114 34.1855 47.3114C36.4855 47.3114 36.8449 45.3708 37.4918 43.7177C37.7793 42.9989 37.9949 41.849 39.073 43.0708C39.1449 45.1552 38.7137 47.0958 37.9231 48.9646C36.1981 53.2052 33.6105 53.4927 30.8793 49.899C28.0761 46.0896 26.6386 41.6333 25.4886 37.1052C24.4824 33.0802 23.6918 29.0552 23.4043 24.8865C24.7699 24.8146 25.2012 25.8208 25.7762 26.4677Z" fill="#D6D6D6"/>
<path d="M19.6667 28.7676C20.8886 35.0207 22.3261 41.1301 24.123 47.2395C17.7261 47.2395 16.0011 45.4426 16.2167 39.0457C16.3605 35.2363 18.0136 32.002 19.6667 28.7676Z" fill="#E9E859"/>
<path d="M47.9852 18.9925C41.7321 17.6269 35.4789 16.405 29.082 16.405C30.1602 14.8956 31.7414 14.105 33.3945 13.3863C39.1445 10.8706 46.2602 10.1519 47.9852 18.9925Z" fill="#D6D6D6"/>
<path d="M47.9848 18.9921C46.2598 10.1515 39.1441 10.8703 33.3941 13.3859C31.8129 14.1047 30.1597 14.8952 29.0816 16.4046C28.1472 16.4046 27.2129 16.4046 25.416 16.4046C30.9504 12.0202 35.9097 8.49839 42.7379 9.14526C47.0504 9.57651 50.5004 14.8234 48.8472 18.8484C48.8472 18.9921 48.2723 18.9203 47.9848 18.9921Z" fill="#56CDFA"/>
<path d="M24.7695 49.4661C23.6195 52.6286 20.8883 51.6942 18.732 51.4786C15.7133 51.1911 13.3414 49.538 12.4789 46.4474C10.5383 39.6911 13.4133 33.8692 16.1445 28.0473C16.5758 27.113 17.2227 26.4661 18.3727 26.6098C18.3727 28.1192 17.3664 29.2692 16.7914 30.4911C14.8508 34.3724 13.7008 38.3973 14.0602 42.7817C14.3477 46.8067 16.8633 49.3223 20.8883 49.4661C22.1102 49.4661 23.4039 49.4661 24.7695 49.4661Z" fill="#56CDFA"/>
<path d="M24.7689 49.4672C23.4752 49.4672 22.1815 49.539 20.8877 49.4672C16.8627 49.3234 14.419 46.8078 14.0596 42.7828C13.7002 38.3984 14.8502 34.3734 16.7908 30.4922C17.4377 29.2703 18.3721 28.1203 18.3721 26.6109V26.5391C18.8033 26.6109 19.2346 26.6109 19.594 26.6828C19.594 27.4016 19.6658 28.1922 19.6658 28.9109C18.0127 32.1453 16.3596 35.3797 16.2158 39.1172C15.9283 45.5141 17.6533 47.3109 24.1221 47.3109H24.0502C24.1939 47.3828 24.3377 47.5265 24.4096 47.6703C24.4814 48.2453 24.6252 48.8203 24.7689 49.4672Z" fill="#D6D6D6"/>
<path d="M14.1311 23.6641C12.3342 27.4016 10.8248 30.564 9.2436 33.6547C8.23735 35.5953 7.2311 34.4453 6.72797 33.3672C5.64985 30.9953 6.00923 28.6234 7.94986 26.8265C9.45923 25.5328 11.1123 24.2391 14.1311 23.6641Z" fill="#BBBBBB"/>
<path d="M23.6185 12.9542C23.4747 10.1511 24.2654 8.35422 25.2716 6.62922C25.9185 5.55109 26.9966 4.9761 28.2904 5.33547C29.3685 5.62297 30.4466 6.41359 30.5904 7.34797C30.806 8.56984 29.3685 8.85736 28.506 9.43236C27.1404 10.5105 25.5591 11.5886 23.6185 12.9542Z" fill="#D6D6D6"/>
<path d="M19.5949 26.5395C19.1637 26.4676 18.7324 26.4676 18.3731 26.3957C18.4449 25.8207 17.8699 24.8145 18.948 24.8145C19.7387 24.8863 19.6668 25.8926 19.5949 26.5395Z" fill="#56CDFA"/>
<path d="M24.3379 47.5977C24.266 47.382 24.1941 47.3102 23.9785 47.2383C24.1941 47.3102 24.3379 47.4539 24.3379 47.5977Z" fill="#E9E859"/>
</svg>
