<svg width="62" height="61" viewBox="0 0 62 61" fill="none" xmlns="http://www.w3.org/2000/svg">
<path d="M35.5504 44.2489C34.9035 48.4895 35.2629 52.802 34.2566 56.9708C33.9691 58.1926 33.9691 59.5583 32.6754 60.3489C31.9566 60.3489 31.3098 60.277 30.591 60.277C30.5191 59.3427 30.6629 58.3364 30.4473 57.4739C28.291 48.9926 27.2129 40.3677 26.9254 31.527C26.8535 29.6583 26.9973 27.502 25.416 25.9926C25.1285 26.1364 24.841 26.2801 24.5535 26.4239C23.9785 26.4239 23.3316 26.4958 22.7566 26.4958C25.0566 23.0458 24.6973 21.177 21.4629 20.3145C21.8223 20.2426 22.2535 20.1708 22.6129 20.0989C25.9191 20.2426 23.6191 18.8052 23.2598 17.8708C23.6191 17.9427 23.9067 18.0145 24.266 18.0145C26.1348 17.6552 24.841 16.002 25.5598 15.1395C26.4223 15.1395 26.2785 14.1333 26.9254 13.7739C27.2129 14.9958 26.6379 16.3614 27.716 17.3676C29.0098 17.6551 29.0097 17.6551 31.5972 15.2114C32.4597 14.7083 33.466 14.3489 33.8254 13.2708C37.2035 11.3301 40.2941 8.81452 44.1754 7.66452C50.7879 5.65202 54.5972 8.95828 53.1597 15.7145C52.6566 18.0145 50.8598 20.602 51.5066 22.3989C52.0816 23.9083 55.316 24.4114 57.2566 25.5614C59.7004 27.0708 61.641 29.0114 60.9223 32.3176C59.7004 29.6583 58.2629 27.5739 55.3879 26.2083C48.9191 23.1895 41.8754 22.5426 35.0473 20.9614C33.6098 20.602 32.0285 21.0333 31.5254 22.6864C31.166 24.052 29.8004 24.2676 29.1535 25.2739C28.7223 25.1301 28.1472 24.9864 28.0035 25.5614C26.7097 30.2333 28.3629 34.402 33.1066 37.7802C33.1066 34.9052 33.1066 32.1739 33.1066 29.5145C35.3348 33.3958 41.3723 35.7676 38.2098 41.877C38.1379 41.9489 38.4973 42.2364 38.641 42.3801C38.7129 42.8114 38.8566 43.1708 38.9285 43.602C37.7066 44.4645 36.1254 41.9489 35.5504 44.2489ZM32.6035 45.5427C32.3879 44.8958 32.9629 43.2426 32.0285 43.6739C30.8066 44.2489 28.2191 44.8958 29.8723 47.4114C29.7285 49.8551 30.0879 52.227 31.6691 54.7426C32.316 51.4364 32.891 48.5614 32.6035 45.5427ZM45.9722 11.4739C41.9472 11.977 38.7848 14.3489 35.4067 16.2895C34.1848 17.0083 34.1129 17.6552 34.1848 18.7333C34.3285 20.0989 35.3347 19.9551 36.2691 20.0989C39.3597 20.4583 42.3785 20.8176 45.4692 21.3208C46.4754 21.4645 47.3379 21.6083 47.7691 20.3864C48.416 18.4458 49.2066 16.577 49.1348 14.4926C48.991 12.6239 48.2004 11.3301 45.9722 11.4739Z" fill="#56CDFA"/>
<path d="M38.3527 42.3804C38.209 42.2366 37.8496 41.9491 37.9215 41.8772C41.084 35.7679 35.1184 33.396 32.8184 29.5148C31.5246 28.0773 30.2309 26.7116 28.8652 25.2741C29.4402 24.2679 30.8059 24.0523 31.2371 22.6866C31.7402 21.0335 33.3215 20.6022 34.759 20.9616C41.5871 22.5429 48.6309 23.1897 55.0996 26.2085C57.9746 27.5741 59.484 29.6585 60.634 32.3179C60.2027 35.7679 57.4715 37.1335 54.8121 38.4991C52.3684 39.721 49.7809 40.7273 47.0496 41.0148C45.9715 40.3679 44.9653 39.6491 44.9653 38.2116L45.2527 38.0679L45.6121 38.1398C46.9777 39.146 47.6965 38.1397 48.4871 37.3491C48.9184 37.1335 49.2777 36.846 49.709 36.6304C52.2246 35.2647 56.1777 34.6179 55.6746 31.0241C55.2434 27.7179 51.7215 26.7116 48.6309 26.0647C46.4746 24.771 46.6184 27.1429 45.8278 27.8616C43.8153 29.8022 43.384 33.3241 39.934 33.7554C39.934 33.5397 39.934 33.2522 39.934 33.0366C41.3715 31.0241 42.809 29.0116 44.2465 26.9991C45.3965 25.4898 45.5403 24.5554 43.1684 24.3398C40.3653 24.0523 37.5621 23.6929 34.759 23.3335C33.8965 23.2616 32.7465 22.6866 32.3152 23.7648C32.0996 24.3398 32.6746 25.2741 33.1059 25.921C33.5371 26.5679 34.2559 27.071 34.8309 27.5741C35.4777 28.4366 36.1965 29.371 36.8434 30.2335C36.7715 30.3054 36.6277 30.4491 36.6277 30.521C36.7715 30.6647 36.9153 30.8085 37.059 30.9523H36.9871C37.2746 31.2398 37.4903 31.4554 37.7778 31.7429V31.671C37.7778 32.7491 38.2809 33.1804 39.359 33.0366L39.2871 32.9648C39.5027 33.2523 39.7184 33.6116 39.8621 33.8991C40.0059 36.3429 41.1559 37.7804 43.6715 37.996L43.7434 37.9241C43.3121 39.2179 44.1027 40.2241 44.8215 41.1585C47.5527 44.6804 50.2121 48.2023 51.5059 52.5148C49.8527 54.3835 48.2715 53.0898 46.7621 52.371C42.5934 50.3585 39.2871 47.0522 35.6215 44.321C36.2684 42.021 37.8496 44.5366 38.7121 43.6741L38.5684 43.746C38.8559 44.896 39.5746 45.3991 40.7246 45.2554V45.1835C40.7965 47.0523 42.0902 47.3397 43.5996 47.4116C43.8152 48.2022 44.3902 48.2741 45.0371 48.1304C45.4684 50.2866 46.5465 50.1429 47.8403 48.8491C45.109 42.3085 44.8934 42.1647 38.3527 42.3804Z" fill="#26AEF5"/>
<path d="M21.3198 20.3867C24.5541 21.2492 24.9135 23.118 22.6135 26.568C21.6791 27.6461 20.6729 28.6523 19.8823 29.8023C15.1385 36.918 9.67601 43.6742 10.5385 53.0179C8.02289 50.2867 8.8135 46.9805 10.0354 44.3211C11.6166 40.943 10.5385 39.793 7.4479 39.0742C5.57915 38.643 3.99791 37.493 2.56041 36.1992C-0.745845 33.1086 -0.602121 29.3711 2.84788 26.3523C5.57913 23.9805 8.88538 23.3336 12.1916 22.3274C13.0541 22.1117 14.1323 22.6149 14.7792 21.6086C16.2885 21.4649 17.8698 22.0399 19.2354 20.8899C19.8823 20.6742 20.601 20.5305 21.3198 20.3867ZM5.65102 33.5398C6.2979 36.0555 10.1073 38.8586 12.2635 38.2836C12.4792 38.2117 12.551 37.7086 12.6229 37.3492C14.3479 34.8336 16.1448 32.318 17.8698 29.7305C18.4448 28.9398 19.6667 28.1492 18.3729 27.0711C17.2948 26.1367 16.8635 24.3398 14.7073 25.0586C11.976 25.9211 9.24476 26.7836 6.94476 28.5086C5.65101 29.443 4.57289 30.593 5.14789 32.3899C4.71664 32.9649 4.42915 33.6117 5.65102 33.5398Z" fill="#BD61F7"/>
<path d="M10.4656 53.0179C9.60308 43.6742 15.0656 36.8461 19.8093 29.8023C20.6 28.6523 21.6062 27.6461 22.5406 26.568C23.1156 26.568 23.7624 26.4961 24.3374 26.4961C22.3249 28.4367 23.6906 29.6586 25.2 30.8086C25.2 31.9586 25.2718 33.1086 25.2718 34.2586C20.8874 30.2336 20.8875 30.2336 17.7968 35.4805C17.5812 35.768 17.5093 36.1273 17.2937 36.4148C16.2156 37.9242 16.9343 38.4992 18.4437 38.7148C20.8874 39.0023 23.3312 39.2899 25.8468 39.5774C25.9187 40.5836 25.9187 41.5898 25.9906 42.5961C23.7624 42.4523 21.4625 42.3805 19.2343 42.093C14.4906 41.3742 13.4843 42.2367 13.3406 47.0523C13.2687 49.8555 14.3468 51.0773 17.2218 50.5742C20.7437 49.9992 23.6187 47.9867 26.4937 46.118C27.0687 47.3398 26.925 48.7055 26.9968 49.9992C23.6906 52.0117 20.4562 54.2398 16.5031 54.9586C14.0593 55.3898 11.975 55.1742 10.4656 53.0179Z" fill="#DA98F4"/>
<path d="M27.5003 17.3675C26.4221 16.3613 26.9971 14.9957 26.7096 13.7738C26.0627 14.1332 26.2065 15.1394 25.344 15.1394C25.1284 11.0426 25.4159 7.01752 26.2784 3.0644C26.5659 1.84252 26.8534 0.333163 28.4346 0.117538C30.3034 -0.0980871 30.7346 1.48317 31.2377 2.77692C32.5315 6.15505 32.9627 9.67692 33.5377 13.1988C33.1784 14.2769 32.1721 14.6363 31.3096 15.1394C30.7346 12.1926 30.6627 9.10193 28.794 5.79568C27.7877 10.1082 27.7878 13.7738 27.5003 17.3675Z" fill="#DA98F4"/>
<path d="M23.044 17.8709C23.4752 18.8053 25.7033 20.2428 22.3971 20.099C19.4502 17.2959 16.4314 14.5647 12.3346 13.5584C10.1783 13.9178 11.3283 15.1397 11.6877 16.1459C12.4065 18.0865 14.3471 19.3803 14.6346 21.5365C14.2033 21.5365 13.8439 21.5366 13.4127 21.6084C11.9752 19.3084 10.3939 17.0803 9.1002 14.7084C8.30957 13.3428 7.23146 11.8334 8.30959 10.1084C9.96271 9.96469 11.4002 10.6834 12.9096 11.2584C15.3533 12.2647 16.6471 15.3553 19.8096 14.8522V14.924C20.0971 16.4334 21.0314 17.2241 22.6127 17.1522C22.8283 17.3678 22.9721 17.6553 23.044 17.8709Z" fill="#BD61F7"/>
<path d="M25.3434 34.2582C25.3434 33.1082 25.2715 31.9582 25.2715 30.8082C25.2715 29.227 25.2715 27.6457 25.2715 26.0645C26.9246 27.5738 26.7809 29.7301 26.7809 31.5988C27.0684 40.3676 28.1465 48.9926 30.3027 57.5457C30.5184 58.4801 30.4465 59.4145 30.4465 60.3488C27.5715 57.4738 28.2902 53.377 26.8527 50.0707C26.7809 48.777 26.9246 47.4113 26.3496 46.1895C26.4934 44.9676 26.2777 43.8176 25.8465 42.6676C25.7746 41.6614 25.7746 40.6551 25.7028 39.6488C25.6309 37.7801 25.4871 35.9832 25.3434 34.2582Z" fill="#26AEF5"/>
<path d="M51.4338 52.4422C50.1401 48.1297 47.4807 44.6078 44.7495 41.0859C44.0307 40.1516 43.2401 39.2172 43.6713 37.8516C44.1026 37.9953 44.5338 38.0672 44.8932 38.2109C44.965 39.6484 45.9713 40.3672 46.9776 41.0141C47.7682 43.6735 50.0682 45.4703 51.0744 47.9859C51.7213 49.4234 52.8713 50.8609 51.4338 52.4422Z" fill="#56CDFA"/>
<path d="M19.9531 14.7799C16.7906 15.283 15.4968 12.1924 13.0531 11.1861C11.5437 10.5392 10.1062 9.82045 8.45312 10.0361C9.31563 8.2392 10.6812 8.67047 11.975 9.24547C14.9218 10.683 17.725 12.2642 19.9531 14.7799Z" fill="#DA98F4"/>
<path d="M22.7562 17.152C21.175 17.2239 20.2406 16.4332 19.9531 14.9238C21.3187 15.0676 22.1093 15.9301 22.7562 17.152Z" fill="#DA98F4"/>
<path d="M13.4848 21.6071C13.916 21.6071 14.2754 21.607 14.7066 21.5352C14.0597 22.5414 12.9816 22.0383 12.1191 22.2539C12.5504 22.1102 13.0535 21.8227 13.4848 21.6071Z" fill="#DA98F4"/>
<path d="M30.5918 60.2773C31.3105 60.2773 31.9574 60.3492 32.6761 60.3492C31.8855 61.1398 31.2387 61.1398 30.5918 60.2773Z" fill="#26AEF5"/>
<path d="M23.0449 17.8698C22.9012 17.5823 22.8293 17.3667 22.6855 17.0792C23.4043 17.0073 23.7636 17.5104 24.0511 18.0136C23.7636 18.0136 23.4043 17.9417 23.0449 17.8698Z" fill="#DA98F4"/>
<path d="M45.9725 11.4738C48.2006 11.33 48.9912 12.6238 49.0631 14.4925C49.135 16.5769 48.3444 18.4457 47.6975 20.3863C47.2662 21.6082 46.4037 21.4644 45.3975 21.3207C42.3787 20.8175 39.2881 20.4582 36.1975 20.0988C35.2631 19.955 34.2568 20.0988 34.1131 18.7332C34.0412 17.6551 34.1131 17.0082 35.335 16.2894C38.785 14.3488 41.9475 11.9769 45.9725 11.4738Z" fill="#1A1A1A"/>
<path d="M28.9378 25.2734C30.2315 26.7109 31.5253 28.0766 32.8909 29.5141C32.8909 32.1734 32.8909 34.9047 32.8909 37.7797C28.1472 34.4016 26.494 30.1609 27.7878 25.5609C27.8596 24.9859 28.4347 25.2015 28.9378 25.2734Z" fill="#222222"/>
<path d="M12.334 13.6289C16.5027 14.5633 19.4496 17.3664 22.3965 20.1696C22.0371 20.2414 21.6059 20.3133 21.2465 20.3852C20.5278 20.5289 19.809 20.7446 19.0903 20.8883C17.509 21.0321 16.2153 20.7445 15.2809 19.1633C14.3465 17.2945 12.909 15.6414 12.334 13.6289Z" fill="#1A1A1A"/>
<path d="M27.5 17.3668C27.7875 13.773 27.7875 10.1074 28.8656 5.79492C30.6625 9.10117 30.8062 12.1918 31.3812 15.1387C28.7937 17.7262 28.7937 17.7262 27.5 17.3668Z" fill="#222222"/>
<path d="M38.3535 42.3792C44.8941 42.1636 45.1097 42.3074 47.7691 48.7761C46.8347 48.5605 45.9004 48.3449 44.966 48.0574C44.7504 47.3386 44.1754 47.1949 43.5285 47.3386C42.9535 46.1168 41.8035 45.6136 40.6535 45.1105V45.1824C40.2223 44.3199 39.5754 43.673 38.4973 43.673L38.641 43.6011C38.4973 43.2417 38.4254 42.8105 38.3535 42.3792Z" fill="#1A1A1A"/>
<path d="M32.6036 45.543C32.8911 48.5617 32.388 51.4367 31.5973 54.8148C30.0161 52.2992 29.6567 49.9992 29.8005 47.4836C30.7348 46.8367 31.6692 46.1898 32.6036 45.543Z" fill="#1A1A1A"/>
<path d="M32.6031 45.5422C31.6687 46.1891 30.7343 46.836 29.8718 47.4828C28.2187 44.8953 30.8062 44.3203 32.0281 43.7453C32.8906 43.3141 32.3874 44.8953 32.6031 45.5422Z" fill="#DA98F4"/>
<path d="M25.2719 26.0645C25.2719 27.6457 25.2719 29.227 25.2719 30.8082C23.7626 29.5864 22.3969 28.3645 24.4094 26.4957C24.6969 26.2801 24.9844 26.2082 25.2719 26.0645Z" fill="#3C3C3C"/>
<path d="M44.8948 38.2113C44.4635 38.0676 44.0323 37.9957 43.6729 37.852L43.601 37.9238C42.2354 36.2707 42.1635 34.8332 43.8167 33.1082C45.7573 31.0239 47.3386 28.652 48.5604 26.0645C51.6511 26.7113 55.1729 27.7895 55.6042 31.0238C56.1073 34.5457 52.1542 35.2645 49.6386 36.6301C49.2073 36.8457 48.8479 37.1332 48.4167 37.3488C47.4823 37.6363 46.476 37.9239 45.5417 38.1395L45.1823 38.0676L44.8948 38.2113Z" fill="#1A1A1A"/>
<path d="M34.7598 23.2617C37.5629 23.6211 40.366 24.0523 43.1691 24.2679C45.4691 24.4836 45.3254 25.418 44.2473 26.9273C42.7379 28.9398 41.3723 30.9523 39.9348 32.9648C39.7191 32.893 39.5035 32.8211 39.2879 32.8211L39.3598 32.8929C39.1442 32.1023 38.5691 31.6711 37.7785 31.5273V31.5992C37.491 31.3117 37.2754 31.0961 36.9879 30.8086H37.0598C36.9879 30.593 36.916 30.3773 36.7723 30.1617C36.1254 29.2992 35.4066 28.3648 34.7598 27.5023C34.7598 26.1367 34.7598 24.6992 34.7598 23.2617Z" fill="#1A1A1A"/>
<path d="M48.5598 25.9932C47.3379 28.5807 45.7566 31.0245 43.816 33.037C42.1629 34.762 42.2348 36.1995 43.6004 37.8526C41.0848 37.637 39.9348 36.1276 39.791 33.7557L39.8629 33.6839C43.3847 33.1807 43.816 29.7307 45.7566 27.7901C46.5473 27.1432 46.4035 24.6995 48.5598 25.9932Z" fill="#56CDFA"/>
<path d="M34.7601 23.2602C34.7601 24.6977 34.7601 26.1352 34.832 27.5008C34.257 26.9258 33.5382 26.4946 33.107 25.8477C32.6757 25.2008 32.1007 24.1946 32.3163 23.6915C32.6757 22.6133 33.8257 23.1884 34.7601 23.2602Z" fill="#DA98F4"/>
<path d="M40.6543 45.1836C41.8043 45.6867 42.9543 46.118 43.5293 47.4117C42.0199 47.268 40.7262 47.0523 40.6543 45.1836Z" fill="#56CDFA"/>
<path d="M44.8945 48.0586C45.8289 48.2742 46.7633 48.4898 47.6977 48.7773C46.4039 50.143 45.3977 50.2867 44.8945 48.0586Z" fill="#56CDFA"/>
<path d="M45.541 38.1383C46.4754 37.8508 47.4816 37.5633 48.416 37.3477C47.6254 38.1383 46.9066 39.1446 45.541 38.1383Z" fill="#56CDFA"/>
<path d="M37.707 31.5273C38.4977 31.6711 39.0727 32.1023 39.2883 32.8929C38.2102 33.1086 37.707 32.6055 37.707 31.5273Z" fill="#56CDFA"/>
<path d="M38.498 43.6738C39.5762 43.6738 40.223 44.3207 40.6543 45.1832C39.5043 45.327 38.7137 44.8957 38.498 43.6738Z" fill="#56CDFA"/>
<path d="M43.457 47.3392C44.1039 47.1954 44.6789 47.3392 44.8945 48.0579C44.2477 48.2017 43.6727 48.1298 43.457 47.3392Z" fill="#56CDFA"/>
<path d="M36.7727 30.2324C36.9165 30.448 36.9884 30.6636 37.0602 30.8793C36.9165 30.7355 36.7727 30.6637 36.629 30.448C36.5571 30.448 36.7008 30.3043 36.7727 30.2324Z" fill="#56CDFA"/>
<path d="M36.9883 30.8086C37.2758 31.0961 37.4914 31.3117 37.7789 31.5992C37.4914 31.3836 37.2758 31.0961 36.9883 30.8086Z" fill="#56CDFA"/>
<path d="M39.2168 32.8926C39.4324 32.8926 39.648 32.9645 39.8636 33.0363C39.8636 33.252 39.8636 33.5395 39.8636 33.7551L39.7918 33.827C39.648 33.4676 39.4324 33.1801 39.2168 32.8926Z" fill="#56CDFA"/>
<path d="M5.07546 32.3172C4.57234 30.5203 5.57859 29.3704 6.87234 28.436C9.17234 26.711 11.9036 25.8484 14.6348 24.9859C16.7911 24.2672 17.2223 26.0641 18.3004 26.9985C19.5942 28.1485 18.3723 28.8672 17.7973 29.6578C16.0723 32.2453 14.3473 34.761 12.5504 37.2766C10.2504 36.0547 7.95047 34.761 5.5786 33.5391L5.50669 33.4672C5.43482 33.1079 5.29109 32.7485 5.07546 32.3172Z" fill="#1A1A1A"/>
<path d="M12.3353 13.6289C12.9103 15.7133 14.276 17.2945 15.3541 19.1633C16.2166 20.7445 17.5103 21.0321 19.1634 20.8883C17.7978 22.0383 16.2166 21.4633 14.7072 21.6071C14.4197 19.4508 12.4791 18.1571 11.7603 16.2164C11.401 15.2102 10.1791 13.9883 12.3353 13.6289Z" fill="#DA98F4"/>
<path d="M5.65039 33.5391C7.95039 34.7609 10.2504 36.0547 12.6223 37.2766C12.4785 37.5641 12.4066 38.1391 12.2629 38.2109C10.1066 38.7859 6.29727 36.0547 5.65039 33.5391Z" fill="#DA98F4"/>
<path d="M5.07522 32.3164C5.21897 32.6758 5.4346 33.1071 5.57835 33.4664C4.42835 33.6102 4.71584 32.9633 5.07522 32.3164Z" fill="#DA98F4"/>
<path d="M25.9912 42.5949C26.4225 43.7449 26.6381 44.8949 26.4944 46.1168C23.6194 47.9855 20.7443 49.9262 17.2225 50.573C14.3475 51.0762 13.2694 49.8543 13.3412 47.0511C13.485 42.2355 14.4912 41.4449 19.235 42.0918C21.4631 42.3793 23.6912 42.4511 25.9912 42.5949Z" fill="#1A1A1A"/>
<path d="M25.3438 34.259C25.4876 36.0559 25.7032 37.7809 25.8469 39.5778C23.4032 39.2903 20.9594 39.0028 18.4438 38.7153C16.9344 38.4997 16.2157 37.9247 17.2938 36.4153C17.5094 36.1278 17.6532 35.7684 17.7969 35.4809C20.9594 30.1622 20.9595 30.1622 25.3438 34.259Z" fill="#1A1A1A"/>
</svg>
