<svg width="60" height="57" viewBox="0 0 60 57" fill="none" xmlns="http://www.w3.org/2000/svg">
<path d="M55.6039 32.373C52.8008 36.5418 52.5133 37.9074 52.6571 43.0824C52.8008 47.898 51.2195 52.0668 46.8352 54.6543C42.1633 57.3855 37.3477 56.9543 32.9633 54.0793C30.7352 52.6418 29.4414 52.5699 27.2133 54.0793C20.6008 58.5355 12.982 56.9543 9.31641 50.6293C10.4664 50.4855 10.9696 51.4918 11.6883 51.9949C14.7071 54.2231 18.0133 54.5106 21.5352 53.2887C23.1883 52.7137 22.9727 52.0668 21.8945 51.2043C23.6195 50.1262 25.9196 49.7668 26.6383 47.4668C27.2133 47.1793 27.7883 46.9637 28.2914 46.6762C30.0164 47.2512 30.7352 51.2043 33.4664 48.1137C34.2571 48.6887 34.9758 49.2637 35.7664 49.7668C38.6414 51.4918 41.6602 51.9949 44.5352 49.9105C47.2664 47.9699 47.8414 45.0949 47.2664 41.9324C47.1227 41.3574 47.1227 40.7824 47.0508 40.1356C49.9258 40.6387 50.2852 39.2012 49.5664 36.9012C49.0633 35.3199 48.2727 33.8824 48.2727 32.2293C50.0695 31.1512 51.5789 29.7137 52.8008 28.0605C54.6695 28.9949 55.8914 30.1449 55.6039 32.373Z" fill="#DA98F4"/>
<path d="M17.8691 8.79805C20.6723 2.6168 24.9129 -0.330066 30.6629 0.0293085C36.0535 0.388684 40.2941 4.05431 42.1629 10.0918L41.9473 10.2355C40.1504 8.72617 39.4316 6.0668 36.2691 5.2043C37.1316 7.36055 37.8504 9.15742 38.5691 10.9543C38.9285 11.8168 39.5035 12.8231 37.8504 13.0387C36.916 9.30119 35.191 6.0668 31.0223 5.27617C26.9254 4.48555 24.6973 7.21681 22.7566 10.1637C21.966 10.0918 20.816 10.4512 20.6723 9.30118C20.1692 6.13868 18.8035 8.6543 17.8691 8.79805Z" fill="#BD61F7"/>
<path d="M1.62538 28.4199C-1.10587 20.0824 4.21287 12.7512 13.7004 12.1043C15.3535 11.9605 17.0066 12.1762 17.5816 10.0918C18.0847 12.6074 16.1441 12.9668 14.491 13.5418C12.2629 14.4043 10.1066 15.3387 9.96286 18.2137C4.71599 22.3824 4.716 26.048 9.891 31.5105C9.17225 34.2418 7.73475 33.1637 6.29725 32.1574C5.07538 31.2949 4.4285 29.2106 2.34413 29.9293C2.34413 29.9293 2.34411 29.8574 2.41599 29.7855C2.48786 29.2824 2.48787 28.7074 2.55974 28.2043C2.12849 28.2762 1.841 28.348 1.62538 28.4199Z" fill="#BD61F7"/>
<path d="M55.6032 32.373C55.8907 30.1449 54.5969 28.9231 52.8 28.1324C53.4469 26.4793 54.3094 24.8262 53.7344 22.9574C54.9563 23.0293 56.25 24.7543 57.3282 23.3887C58.1188 22.3105 57.0406 20.9449 56.3938 19.8668C53.7344 15.1949 48.9906 14.0449 44.3188 13.3262C41.9469 12.9668 41.6594 12.1043 41.9469 10.2355L42.1625 10.0918C42.6656 12.1762 44.3188 11.7449 45.7563 11.8168C51.0031 12.1762 55.4594 14.1887 57.9032 19.1481C60.0594 23.5324 59.1969 27.6293 56.6813 31.5824C56.4657 31.9418 55.9625 32.0855 55.6032 32.373Z" fill="#BD61F7"/>
<path d="M2.20117 29.9287C4.35742 29.2818 4.93242 31.2943 6.1543 32.1568C7.5918 33.163 9.0293 34.2412 9.74805 31.5099C10.6824 31.9412 11.473 32.6599 12.5511 31.7974C14.348 33.8099 16.1449 35.8224 14.7074 38.8412C12.048 40.638 12.6949 43.4412 12.623 46.0287C11.3293 45.238 11.9043 42.7943 10.1074 42.5787C8.02305 42.2912 8.3824 40.8537 8.23865 39.4881C8.88552 37.8349 8.81365 36.5412 6.9449 35.4631C4.71678 34.2412 3.06367 32.3006 2.20117 29.9287Z" fill="#DA98F4"/>
<path d="M8.23725 39.5605C8.381 40.8543 8.02165 42.3637 10.106 42.6512C11.9029 42.8668 11.3279 45.3106 12.6216 46.1012C14.9935 50.9168 16.1435 51.5637 21.8935 51.2762C22.9716 52.1387 23.2591 52.7856 21.5341 53.3606C18.0122 54.5824 14.706 54.2949 11.6873 52.0668C10.9685 51.4918 10.4654 50.5574 9.31537 50.7012L9.38727 50.6293C9.67477 49.2637 9.24351 48.3293 8.02163 47.6825C7.08726 44.8793 7.08725 42.2199 8.23725 39.5605Z" fill="#BD61F7"/>
<path d="M9.81836 18.2148C10.034 15.3398 12.1184 14.4055 14.3465 13.543C15.9996 12.8961 17.9403 12.6086 17.4371 10.093C17.509 9.66171 17.6527 9.23045 17.7246 8.7992C18.659 8.72733 20.0246 6.13983 20.5278 9.30233C20.6715 10.3805 21.8215 10.0211 22.6121 10.1648C22.6121 11.3867 21.6059 12.4648 22.0371 13.6867C21.3184 16.418 18.3715 16.2742 16.6465 17.6398C14.3465 16.7055 12.1184 17.568 9.81836 18.2148Z" fill="#DA98F4"/>
<path d="M8.02148 47.6113C9.17148 48.2582 9.67463 49.2645 9.38713 50.5582C8.38088 49.8395 8.16523 48.7613 8.02148 47.6113Z" fill="#DA98F4"/>
<path d="M1.625 28.4207C1.84063 28.3488 2.12812 28.277 2.34375 28.2051C2.27187 28.7082 2.27187 29.2832 2.19999 29.7863C1.98437 29.3551 1.84063 28.852 1.625 28.4207Z" fill="#DA98F4"/>
<path d="M53.7341 22.9579C54.3809 24.8266 53.4465 26.4798 52.7996 28.1329C51.5778 29.786 50.0684 31.2235 48.2715 32.3016C46.9059 31.1516 45.5403 29.9298 44.1746 28.7798C42.3778 27.2704 40.509 25.8329 41.9465 23.1017C41.8747 21.2329 43.3841 19.6517 42.9528 17.711C47.9841 16.1298 52.0091 18.0704 53.7341 22.9579Z" fill="#1A1A1A"/>
<path d="M47.0511 40.2799C47.123 40.8549 47.1949 41.4299 47.2668 42.0768C47.8418 45.2393 47.3386 48.1143 44.5355 50.0549C41.6605 52.0674 38.6418 51.5643 35.7668 49.9112C34.9762 49.408 34.1855 48.833 33.4668 48.258C34.8324 45.6705 36.0543 43.0112 36.7012 40.1362C37.9949 39.0581 39.648 39.9924 41.0137 39.3455C43.0262 39.9205 45.5418 37.1174 47.0511 40.2799Z" fill="#1A1A1A"/>
<path d="M21.8941 51.2043C16.1441 51.4918 14.9942 50.8449 12.6223 46.0293C12.6942 43.4418 12.0473 40.6387 14.7066 38.8418C17.2941 39.7762 19.9535 39.5606 22.6129 39.4168C23.2598 40.7106 23.9066 42.0043 24.5535 43.2981C24.841 44.8793 25.4879 46.2449 26.566 47.4668C25.9191 49.7668 23.6191 50.1262 21.8941 51.2043Z" fill="#1A1A1A"/>
<path d="M24.6262 43.3697C23.9793 42.0759 23.3324 40.7821 22.6855 39.4884C23.6199 37.9071 23.6918 36.6134 21.6074 36.1103C20.7449 35.8946 20.1699 35.4634 19.8105 34.6728C26.7105 32.8759 28.3637 37.9071 29.9449 42.9384C30.8793 42.2196 30.3761 41.2134 31.2386 40.9259C32.5324 40.9978 33.898 41.1415 34.9043 39.9196C35.5512 39.129 36.2699 38.9853 36.8449 40.0634C36.1981 42.9384 34.9762 45.5977 33.6106 48.1852C30.8793 51.204 30.0887 47.3227 28.4355 46.7477C28.0762 44.5196 26.8543 43.3697 24.6262 43.3697Z" fill="#D6D6D6"/>
<path d="M47.0506 40.2793C45.5413 37.1168 43.0257 39.9199 41.0132 39.2731C38.8569 38.0512 39.5038 37.0449 41.085 35.8949C41.66 35.4637 43.8163 35.7512 42.235 33.9543C41.3725 33.1637 40.5819 32.3012 39.7194 31.5105C39.6475 28.2043 43.0975 30.3605 44.1038 28.7793C45.4694 29.9293 46.835 31.1512 48.2007 32.3012C48.2007 34.0262 48.9913 35.4637 49.4944 36.973C50.285 39.273 49.9256 40.7824 47.0506 40.2793Z" fill="#EDEDED"/>
<path d="M24.625 43.3711C26.8531 43.3711 28.075 44.5211 28.3625 46.7492C27.7875 47.0367 27.2125 47.2523 26.7093 47.5398C25.5593 46.318 24.9125 44.8805 24.625 43.3711Z" fill="#BBBBBB"/>
<path d="M22.1096 13.6863C21.7502 12.3925 22.6846 11.3863 22.6846 10.1644C24.6971 7.21751 26.9252 4.48625 30.9502 5.27688C35.119 6.0675 36.844 9.30189 37.7784 13.0394C37.6346 13.255 37.4908 13.3988 37.3471 13.6144C34.9752 14.405 32.9627 15.6988 31.1658 17.3519C30.519 17.5675 29.8721 17.7113 29.1534 17.9269C28.8659 17.7113 28.5783 17.4956 28.2908 17.28C26.494 15.6988 24.4096 14.405 22.1096 13.6863Z" fill="#1A1A1A"/>
<path d="M37.4196 13.6145C37.5633 13.3988 37.707 13.2551 37.8508 13.0395C39.432 12.8238 38.9289 11.8895 38.5695 10.9551C37.8508 9.1582 37.132 7.36133 36.2695 5.20508C39.432 5.9957 40.1508 8.72695 41.9477 10.2363C41.6602 12.1051 41.9477 12.9676 44.3195 13.327C48.9914 14.0457 53.7352 15.1238 56.3945 19.8676C57.0414 21.0176 58.1196 22.3832 57.3289 23.3895C56.3227 24.7551 55.0289 23.0301 53.7352 22.9582C52.0102 18.0707 47.9852 16.1301 42.9539 17.7113C43.6008 15.2676 46.3321 17.5676 47.4821 15.627C45.9727 14.7645 44.4633 15.1957 42.9539 15.1957C41.0133 15.1238 38.8571 15.5551 37.4196 13.6145Z" fill="#DA98F4"/>
<path d="M9.81971 18.2137C12.0478 17.5668 14.276 16.7043 16.6478 17.7106C16.4322 20.8012 17.9416 23.6043 18.5166 26.5512C17.9416 27.0543 17.3666 27.5574 16.7916 27.9887C15.0666 28.9231 13.701 30.2168 12.551 31.7981C11.5447 32.6606 10.6822 31.8699 9.74785 31.5106C4.57285 26.0481 4.64471 22.3824 9.81971 18.2137Z" fill="#1A1A1A"/>
<path d="M12.5508 31.7976C13.7008 30.2164 15.0664 28.9227 16.7914 27.9883C17.1508 30.1445 18.8039 30.7914 20.5289 31.2227C19.8821 31.7258 19.307 32.3008 18.6602 32.8039C18.2289 33.1633 17.4383 33.5945 17.7977 34.0977C18.0852 34.5289 19.0195 34.457 19.6664 34.6008C20.0258 35.3914 20.6008 35.8227 21.4633 36.0383C23.5477 36.5414 23.5477 37.8352 22.5414 39.4164C19.882 39.5602 17.2227 39.7039 14.6352 38.8414C16.2164 35.8226 14.3477 33.8101 12.5508 31.7976Z" fill="#EDEDED"/>
<path d="M18.5151 26.5516C18.012 23.6047 16.5026 20.8016 16.6463 17.7109C18.3713 16.3453 21.3182 16.4891 22.0369 13.7578C24.4088 14.4766 26.4213 15.7703 28.2901 17.3516C28.0745 17.5672 27.8588 17.7109 27.5713 17.9266C25.9182 17.8547 24.9838 19.7234 23.2588 19.5078C23.3307 18.9328 23.187 18.3578 22.4682 18.3578C21.9651 18.3578 21.8932 18.8609 22.0369 19.3641C22.0369 22.3828 24.6963 24.8984 23.3307 28.1328C21.6057 28.0609 20.0245 27.5578 18.5151 26.5516Z" fill="#EDEDED"/>
<path d="M37.4199 13.6133C38.8574 15.5539 41.0137 15.1227 42.9543 15.1945C44.3918 15.2664 45.973 14.8351 47.4824 15.6258C46.3324 17.4945 43.6012 15.2664 42.9543 17.7102C43.3856 19.6508 41.8762 21.232 41.948 23.1008C41.0855 22.5258 41.373 21.6633 41.2293 20.8727C40.8699 18.4289 39.9355 17.3508 37.6355 19.2914C36.9168 19.5789 36.198 19.9383 35.4793 20.2258C33.4668 20.082 30.6637 21.1602 31.1668 17.3508C33.0355 15.6977 35.048 14.4039 37.4199 13.6133Z" fill="#EDEDED"/>
<path d="M37.7061 19.2924C40.0061 17.3518 40.9404 18.4299 41.2998 20.8736C41.3717 21.6643 41.1561 22.5268 42.0186 23.1018C40.5811 25.833 42.5217 27.3424 44.2467 28.7799C43.2405 30.3611 39.7904 28.133 39.8623 31.5111C36.1967 29.858 35.4779 26.983 36.6279 23.3893C37.0592 22.0236 37.3467 20.658 37.7061 19.2924Z" fill="#D6D6D6"/>
<path d="M42.3066 33.9551C43.8879 35.752 41.6598 35.4645 41.1567 35.8957C39.5754 37.0457 38.9285 38.052 41.0848 39.2738C39.7191 39.9207 38.066 38.9863 36.7723 40.0645C36.1973 38.9863 35.4785 39.1301 34.8316 39.9207C33.8254 41.0707 32.5316 40.9988 31.166 40.927C32.7473 35.0332 33.466 34.5301 39.5035 34.2426C40.4379 34.1707 41.3723 34.027 42.3066 33.9551Z" fill="#E9E859"/>
<path d="M42.3075 33.9555C41.3731 34.0273 40.4388 34.1711 39.4325 34.1711C33.3231 34.4586 32.6763 34.9617 31.095 40.8555C30.2325 41.143 30.7356 42.1492 29.8012 42.868C28.22 37.8367 26.5669 32.8055 19.6669 34.6024C19.02 34.4586 18.0856 34.5305 17.7981 34.0992C17.4388 33.5961 18.2294 33.1649 18.6606 32.8055C19.3075 32.3024 19.8825 31.7273 20.5294 31.2242C21.895 30.5773 23.045 29.7149 23.3325 28.0617C24.6981 24.8992 21.9669 22.3117 22.0387 19.293C22.47 19.3648 22.9013 19.4367 23.2606 19.5086C24.9138 21.2336 26.7106 22.743 29.1544 23.1024C31.9575 23.6774 33.6106 21.8086 35.4075 20.2274C36.1263 19.9399 36.845 19.5805 37.5638 19.293C37.2044 20.6586 36.9169 22.0242 36.4856 23.318C35.3356 26.9117 36.0544 29.7867 39.72 31.4398C40.6544 32.3023 41.5169 33.1648 42.3075 33.9555Z" fill="#1A1A1A"/>
<path d="M35.4789 20.2266C33.682 21.8078 32.0289 23.6766 29.2258 23.1016C29.1539 21.4484 29.1539 19.7234 29.082 18.0703L29.2258 17.9266C29.8727 17.7109 30.5195 17.5672 31.2383 17.3516C30.7352 21.1609 33.5383 20.0828 35.4789 20.2266Z" fill="#D6D6D6"/>
<path d="M27.6445 17.8543C27.8602 17.6387 28.0758 17.4949 28.3633 17.2793C28.6508 17.4949 28.9383 17.7105 29.2258 17.9262L29.082 18.0699C28.5789 17.9981 28.1477 17.9262 27.6445 17.8543Z" fill="#D6D6D6"/>
<path d="M23.4039 28.0602C23.1164 29.7133 21.9664 30.5758 20.6008 31.2227C18.8039 30.7914 17.1508 30.1445 16.8633 27.9883C17.4383 27.4852 18.0133 27.0539 18.5883 26.5508C20.0258 27.557 21.6071 28.0602 23.4039 28.0602Z" fill="#E9E859"/>
<path d="M27.6445 17.8555C28.1477 17.9273 28.5789 17.9992 29.082 18.0711C29.1539 19.7242 29.1539 21.4492 29.2258 23.1024C26.782 22.743 24.9852 21.2336 23.332 19.5086C25.057 19.6524 25.9914 17.8555 27.6445 17.8555Z" fill="#E9E859"/>
<path d="M23.3322 19.507C22.9009 19.4352 22.4697 19.3633 22.1103 19.2914C21.9666 18.7883 22.0384 18.2852 22.5416 18.2852C23.2603 18.357 23.404 18.932 23.3322 19.507Z" fill="#E9E859"/>
</svg>
