<svg width="36" height="35" viewBox="0 0 36 35" fill="none" xmlns="http://www.w3.org/2000/svg">
<mask id="path-1-inside-1_412_110" fill="white">
<path d="M19.1031 3.19014C21.8181 3.40491 24.4114 4.40688 26.5655 6.07332C28.7196 7.73976 30.3409 9.9983 31.2307 12.5723C32.1206 15.1462 32.2403 17.9238 31.5754 20.5649C30.9104 23.2059 29.4896 25.5956 27.4869 27.4413C25.4843 29.2869 22.9868 30.5084 20.3004 30.9561C17.614 31.4038 14.8554 31.0582 12.3624 29.9617C9.86948 28.8652 7.75048 27.0653 6.26501 24.7827C4.77953 22.5001 3.99209 19.8337 3.99915 17.1103L8.80782 17.1227C8.80319 18.9107 9.32016 20.6612 10.2954 22.1598C11.2707 23.6585 12.6618 24.8401 14.2985 25.56C15.9352 26.2799 17.7463 26.5067 19.51 26.2128C21.2736 25.9189 22.9133 25.117 24.2281 23.9053C25.5429 22.6935 26.4757 21.1246 26.9122 19.3907C27.3488 17.6569 27.2702 15.8333 26.686 14.1434C26.1018 12.4536 25.0374 10.9708 23.6232 9.87672C22.209 8.78267 20.5063 8.12485 18.7239 7.98385L19.1031 3.19014Z"/>
</mask>
<path d="M19.1031 3.19014C21.8181 3.40491 24.4114 4.40688 26.5655 6.07332C28.7196 7.73976 30.3409 9.9983 31.2307 12.5723C32.1206 15.1462 32.2403 17.9238 31.5754 20.5649C30.9104 23.2059 29.4896 25.5956 27.4869 27.4413C25.4843 29.2869 22.9868 30.5084 20.3004 30.9561C17.614 31.4038 14.8554 31.0582 12.3624 29.9617C9.86948 28.8652 7.75048 27.0653 6.26501 24.7827C4.77953 22.5001 3.99209 19.8337 3.99915 17.1103L8.80782 17.1227C8.80319 18.9107 9.32016 20.6612 10.2954 22.1598C11.2707 23.6585 12.6618 24.8401 14.2985 25.56C15.9352 26.2799 17.7463 26.5067 19.51 26.2128C21.2736 25.9189 22.9133 25.117 24.2281 23.9053C25.5429 22.6935 26.4757 21.1246 26.9122 19.3907C27.3488 17.6569 27.2702 15.8333 26.686 14.1434C26.1018 12.4536 25.0374 10.9708 23.6232 9.87672C22.209 8.78267 20.5063 8.12485 18.7239 7.98385L19.1031 3.19014Z" stroke="#313131" stroke-width="8" mask="url(#path-1-inside-1_412_110)"/>
<mask id="path-2-inside-2_412_110" fill="white">
<path d="M6.0933 24.2709C4.68415 21.8873 4.01346 19.1394 4.16603 16.3747C4.31859 13.61 5.28758 10.9526 6.95043 8.73855C8.61329 6.52452 10.8953 4.85331 13.508 3.93625C16.1207 3.01919 18.9466 2.89747 21.6285 3.58647L20.4319 8.24391C18.6712 7.79156 16.8159 7.87147 15.1006 8.47354C13.3854 9.07561 11.8871 10.1728 10.7954 11.6264C9.70373 13.0799 9.06757 14.8246 8.96741 16.6397C8.86724 18.4548 9.30757 20.2588 10.2327 21.8237L6.0933 24.2709Z"/>
</mask>
<path d="M6.0933 24.2709C4.68415 21.8873 4.01346 19.1394 4.16603 16.3747C4.31859 13.61 5.28758 10.9526 6.95043 8.73855C8.61329 6.52452 10.8953 4.85331 13.508 3.93625C16.1207 3.01919 18.9466 2.89747 21.6285 3.58647L20.4319 8.24391C18.6712 7.79156 16.8159 7.87147 15.1006 8.47354C13.3854 9.07561 11.8871 10.1728 10.7954 11.6264C9.70373 13.0799 9.06757 14.8246 8.96741 16.6397C8.86724 18.4548 9.30757 20.2588 10.2327 21.8237L6.0933 24.2709Z" stroke="#5B5B5B" stroke-width="8" mask="url(#path-2-inside-2_412_110)"/>
</svg>
