<svg width="35" height="35" viewBox="0 0 35 35" fill="none" xmlns="http://www.w3.org/2000/svg">
<mask id="path-1-inside-1_412_111" fill="white">
<path d="M18.2496 3.19014C21.6147 3.45633 24.7703 4.92938 27.1352 7.338C29.5002 9.74663 30.9153 12.9286 31.1198 16.298C31.3244 19.6674 30.3048 22.9972 28.2486 25.6743C26.1925 28.3514 23.2383 30.1954 19.9302 30.8668C16.6221 31.5382 13.1827 30.9918 10.2456 29.3281C7.30848 27.6644 5.07135 24.9956 3.9462 21.813C2.82105 18.6305 2.88366 15.1486 4.12249 12.0086C5.36132 8.86852 7.69295 6.28182 10.688 4.72481L12.906 8.9914C10.9397 10.0136 9.40895 11.7118 8.59563 13.7733C7.78231 15.8348 7.74121 18.1208 8.47989 20.2102C9.21858 22.2996 10.6873 24.0518 12.6156 25.144C14.5439 26.2362 16.8019 26.595 18.9737 26.1542C21.1456 25.7134 23.0851 24.5028 24.435 22.7452C25.7849 20.9876 26.4543 18.8015 26.32 16.5895C26.1857 14.3774 25.2567 12.2883 23.704 10.707C22.1514 9.1257 20.0796 8.15861 17.8704 7.98385L18.2496 3.19014Z"/>
</mask>
<path d="M18.2496 3.19014C21.6147 3.45633 24.7703 4.92938 27.1352 7.338C29.5002 9.74663 30.9153 12.9286 31.1198 16.298C31.3244 19.6674 30.3048 22.9972 28.2486 25.6743C26.1925 28.3514 23.2383 30.1954 19.9302 30.8668C16.6221 31.5382 13.1827 30.9918 10.2456 29.3281C7.30848 27.6644 5.07135 24.9956 3.9462 21.813C2.82105 18.6305 2.88366 15.1486 4.12249 12.0086C5.36132 8.86852 7.69295 6.28182 10.688 4.72481L12.906 8.9914C10.9397 10.0136 9.40895 11.7118 8.59563 13.7733C7.78231 15.8348 7.74121 18.1208 8.47989 20.2102C9.21858 22.2996 10.6873 24.0518 12.6156 25.144C14.5439 26.2362 16.8019 26.595 18.9737 26.1542C21.1456 25.7134 23.0851 24.5028 24.435 22.7452C25.7849 20.9876 26.4543 18.8015 26.32 16.5895C26.1857 14.3774 25.2567 12.2883 23.704 10.707C22.1514 9.1257 20.0796 8.15861 17.8704 7.98385L18.2496 3.19014Z" stroke="#313131" stroke-width="8" mask="url(#path-1-inside-1_412_111)"/>
<mask id="path-2-inside-2_412_111" fill="white">
<path d="M10.9373 4.67187C13.7192 3.25476 16.8949 2.80816 19.9597 3.40305L19.0435 8.12363C17.0313 7.73307 14.9464 8.02627 13.1201 8.95664L10.9373 4.67187Z"/>
</mask>
<path d="M10.9373 4.67187C13.7192 3.25476 16.8949 2.80816 19.9597 3.40305L19.0435 8.12363C17.0313 7.73307 14.9464 8.02627 13.1201 8.95664L10.9373 4.67187Z" stroke="#5B5B5B" stroke-width="8" mask="url(#path-2-inside-2_412_111)"/>
</svg>
