<svg width="35" height="35" viewBox="0 0 35 35" fill="none" xmlns="http://www.w3.org/2000/svg">
<mask id="path-1-inside-1_412_113" fill="white">
<path d="M18.2496 3.19014C21.7563 3.46754 25.0301 5.05485 27.4196 7.63631C29.8092 10.2178 31.1394 13.6042 31.1456 17.1218C31.1518 20.6395 29.8336 24.0305 27.4531 26.6204C25.0727 29.2103 21.8046 30.8092 18.2989 31.099C14.7932 31.3887 11.3069 30.3482 8.53353 28.1843C5.76017 26.0204 3.90303 22.8918 3.33157 19.4209C2.7601 15.95 3.51621 12.3911 5.44945 9.45236C7.3827 6.51358 10.3514 4.41026 13.7649 3.56084L14.9261 8.22722C12.685 8.78489 10.736 10.1658 9.46681 12.0951C8.19759 14.0245 7.7012 16.361 8.07637 18.6397C8.45155 20.9185 9.67081 22.9725 11.4916 24.3931C13.3123 25.8137 15.6012 26.4969 17.9028 26.3066C20.2043 26.1164 22.3499 25.0667 23.9127 23.3664C25.4755 21.666 26.341 19.4397 26.3369 17.1303C26.3328 14.8209 25.4595 12.5976 23.8907 10.9029C22.3219 9.20808 20.1726 8.16597 17.8704 7.98385L18.2496 3.19014Z"/>
</mask>
<path d="M18.2496 3.19014C21.7563 3.46754 25.0301 5.05485 27.4196 7.63631C29.8092 10.2178 31.1394 13.6042 31.1456 17.1218C31.1518 20.6395 29.8336 24.0305 27.4531 26.6204C25.0727 29.2103 21.8046 30.8092 18.2989 31.099C14.7932 31.3887 11.3069 30.3482 8.53353 28.1843C5.76017 26.0204 3.90303 22.8918 3.33157 19.4209C2.7601 15.95 3.51621 12.3911 5.44945 9.45236C7.3827 6.51358 10.3514 4.41026 13.7649 3.56084L14.9261 8.22722C12.685 8.78489 10.736 10.1658 9.46681 12.0951C8.19759 14.0245 7.7012 16.361 8.07637 18.6397C8.45155 20.9185 9.67081 22.9725 11.4916 24.3931C13.3123 25.8137 15.6012 26.4969 17.9028 26.3066C20.2043 26.1164 22.3499 25.0667 23.9127 23.3664C25.4755 21.666 26.341 19.4397 26.3369 17.1303C26.3328 14.8209 25.4595 12.5976 23.8907 10.9029C22.3219 9.20808 20.1726 8.16597 17.8704 7.98385L18.2496 3.19014Z" stroke="#313131" stroke-width="8" mask="url(#path-1-inside-1_412_113)"/>
<mask id="path-2-inside-2_412_113" fill="white">
<path d="M13.6686 3.62358C15.4445 3.14774 17.2967 3.02634 19.1194 3.26631C20.9422 3.50629 22.6999 4.10293 24.2921 5.02219C25.8843 5.94144 27.2798 7.1653 28.399 8.62388C29.5182 10.0825 30.3392 11.7472 30.815 13.5231L26.1702 14.7677C25.8578 13.6018 25.3188 12.5088 24.584 11.5512C23.8492 10.5936 22.933 9.79014 21.8877 9.18663C20.8424 8.58312 19.6885 8.19141 18.4918 8.03386C17.2951 7.87631 16.0791 7.95601 14.9132 8.26841L13.6686 3.62358Z"/>
</mask>
<path d="M13.6686 3.62358C15.4445 3.14774 17.2967 3.02634 19.1194 3.26631C20.9422 3.50629 22.6999 4.10293 24.2921 5.02219C25.8843 5.94144 27.2798 7.1653 28.399 8.62388C29.5182 10.0825 30.3392 11.7472 30.815 13.5231L26.1702 14.7677C25.8578 13.6018 25.3188 12.5088 24.584 11.5512C23.8492 10.5936 22.933 9.79014 21.8877 9.18663C20.8424 8.58312 19.6885 8.19141 18.4918 8.03386C17.2951 7.87631 16.0791 7.95601 14.9132 8.26841L13.6686 3.62358Z" stroke="#5B5B5B" stroke-width="8" mask="url(#path-2-inside-2_412_113)"/>
</svg>
