<svg width="29" height="30" viewBox="0 0 29 30" fill="none" xmlns="http://www.w3.org/2000/svg">
<path d="M28.9467 14.7247C29.3896 22.9736 21.8604 30.2259 12.9749 29.3124C6.46994 28.6481 1.01685 23.3888 0.131072 16.6624C-0.920794 8.74569 4.47693 1.8532 12.0614 0.38612C12.6704 0.275398 13.5285 -0.00141272 13.8607 0.607562C14.2759 1.29958 14.1098 2.24072 13.9437 3.04346C13.8607 3.48635 13.3348 3.34794 12.9749 3.40331C9.37641 4.03996 6.5253 5.81154 4.67069 8.96713C2.17943 13.2023 2.56696 18.4893 5.91633 22.2539C8.15846 24.7728 10.9542 26.1845 14.2482 26.2399C18.0405 26.2952 21.2791 24.8005 23.5766 21.7279C26.7599 17.4928 26.7876 12.2888 23.715 7.99831C23.2998 7.41702 23.2444 7.22325 23.8811 6.75268C25.8464 5.25792 25.9571 5.23024 27.1474 7.52773C28.393 9.88059 29.2235 12.2888 28.9467 14.7247Z" fill="url(#paint0_linear_448_31)"/>
<path d="M14.5528 1.99231C14.5528 0.110024 14.7466 -0.139102 16.3521 0.0546629C19.3416 0.386831 21.9989 1.63247 24.2964 3.57011C24.9608 4.12373 25.0992 4.84342 24.4348 5.48007C23.7428 6.14441 23.0785 7.25164 21.9159 6.36586C20.0059 4.89878 17.9298 3.95764 15.5493 3.59779C14.4974 3.45938 14.5251 2.60129 14.5528 1.99231Z" fill="#323232"/>
<defs>
<linearGradient id="paint0_linear_448_31" x1="17" y1="-10.5" x2="36.5" y2="1.32926e-06" gradientUnits="userSpaceOnUse">
<stop stop-color="#97EE47"/>
<stop offset="0.45494" stop-color="#777BFF"/>
<stop offset="1" stop-color="#D8A9C8"/>
</linearGradient>
</defs>
</svg>
