<svg width="64" height="63" viewBox="0 0 64 63" fill="none" xmlns="http://www.w3.org/2000/svg">
<path d="M0.933105 31.7382C0.696386 16.4106 11.4671 3.98286 26.4987 0.787161C30.4046 -0.0413544 32.2983 2.26665 31.0555 6.11333C30.7005 7.29693 29.7536 7.06022 28.9251 7.23776C16.3198 9.30905 7.38369 19.5471 7.44287 31.8565C7.50205 43.3374 16.0239 53.5163 27.3272 55.6467C43.3057 58.6649 57.8048 45.7045 56.4436 29.4893C56.2069 26.8854 55.7927 24.104 54.3132 21.9143C51.8868 18.2452 55.6151 18.2452 57.0946 17.1799C59.2251 15.6413 59.8169 17.8309 60.3495 19.1329C64.788 29.6077 64.0186 39.6682 57.6864 49.137C46.679 65.4706 23.1847 67.5419 9.51416 53.3387C4.77978 48.3677 0.578027 40.5559 0.933105 31.7382Z" fill="#323232"/>
<path d="M32.002 3.56912C32.0611 0.255055 32.5346 -0.277555 35.8486 0.136703C44.4297 1.20194 51.4129 5.10779 56.9166 11.8543C58.041 13.2154 58.692 14.7541 56.8574 15.8785C55.1412 16.9437 53.1883 19.6068 50.9986 17.0621C46.501 11.8543 40.9973 8.71776 34.1324 7.83006C31.6469 7.47498 32.0611 5.28533 32.002 3.56912Z" fill="url(#paint0_linear_407_103)"/>
<defs>
<linearGradient id="paint0_linear_407_103" x1="45.0047" y1="0.015625" x2="45.0047" y2="18.1302" gradientUnits="userSpaceOnUse">
<stop stop-color="#DAFD6A"/>
<stop offset="1" stop-color="#24FDC0"/>
</linearGradient>
</defs>
</svg>
