<svg width="63" height="64" viewBox="0 0 63 64" fill="none" xmlns="http://www.w3.org/2000/svg">
<path d="M10.1794 50.2027C12.0732 48.4273 13.7302 48.1314 16.0382 50.0252C23.7316 56.4166 34.739 57.1267 43.0833 52.0964C51.7236 46.8886 56.1029 37.3607 54.4458 27.3593C52.848 17.7722 45.1546 10.138 35.2124 8.1851C33.3779 7.83003 31.1882 7.9484 30.8923 5.16695C30.4189 0.610118 31.6025 -0.514311 36.1593 0.195846C49.1196 2.20796 59.9495 12.742 62.1984 25.5248C64.6839 39.3728 58.5292 52.6882 46.5749 59.3755C34.6798 66.0037 20.0624 64.465 9.94269 55.5289C8.34484 54.1085 7.75304 52.8066 9.3509 51.0312C9.64679 50.7353 9.88351 50.4986 10.1794 50.2027Z" fill="url(#paint0_linear_406_102)"/>
<path d="M10.1808 50.2019C9.88486 50.4978 9.58897 50.7345 9.35225 51.0304C7.4585 51.6814 6.33409 50.7937 5.26885 49.3142C-2.77959 37.7741 -1.47763 20.0794 8.28702 10.4332C13.3173 5.46206 18.8802 2.08879 25.8042 0.905199C27.047 0.72766 28.8815 0.0766909 29.2958 1.31946C29.9468 2.9765 29.6509 4.9886 29.7101 6.82317C29.7101 6.94153 28.8815 7.11907 28.4081 7.23743C16.7497 9.19036 9.4706 15.8777 6.92588 27.3585C5.80146 32.448 6.51162 37.5374 8.99717 42.2126C10.3583 44.7573 12.1929 47.1837 10.1808 50.2019Z" fill="#323232"/>
<defs>
<linearGradient id="paint0_linear_406_102" x1="35.5758" y1="0" x2="35.5758" y2="63.463" gradientUnits="userSpaceOnUse">
<stop stop-color="#FFD95B"/>
<stop offset="0.463542" stop-color="#F4EB6B"/>
<stop offset="1" stop-color="#EAFE7B"/>
</linearGradient>
</defs>
</svg>
