<svg width="64" height="63" viewBox="0 0 64 63" fill="none" xmlns="http://www.w3.org/2000/svg">
<path d="M48.7412 11.9133C49.5106 11.9725 50.1615 11.6766 50.5166 11.0256C52.1736 8.00747 53.5348 9.13189 55.3694 11.0256C63.1219 19.0741 65.4891 33.2772 60.6364 43.8112C54.8368 56.4756 44.7762 62.9262 30.9873 62.6895C16.4883 62.4528 4.41566 52.1555 1.45667 37.7157C-1.91657 21.027 8.73576 4.27915 26.6672 0.846725C27.9692 0.610006 29.7446 0.0182091 30.5731 1.14262C31.6383 2.56294 31.1057 4.57505 30.869 6.29126C30.6914 7.47486 29.4486 7.06059 28.6201 7.23812C20.0983 8.89515 13.5293 13.2153 9.74183 21.2637C2.75863 36.1178 12.3457 53.3983 28.4426 55.7063C42.6457 57.7184 54.1266 47.8946 56.1387 35.6444C57.3815 28.1877 55.7244 21.1454 50.1616 15.4641C49.1555 14.4581 48.5637 13.3928 48.7412 11.9133Z" fill="#323232"/>
<path d="M48.6825 11.9137C47.4397 12.2687 46.2561 12.7421 45.0725 11.8545C41.9952 9.60563 38.326 8.71795 34.6569 7.94861C32.053 7.41599 31.5796 6.05487 32.053 2.14901C32.3489 -0.159001 33.9467 0.0185385 35.5446 0.0777182C40.8116 0.373617 45.4276 2.44488 49.8069 5.22632C51.4048 6.23238 51.6415 7.65272 50.517 9.25057C49.9252 10.1383 49.3335 11.026 48.6825 11.9137Z" fill="url(#paint0_linear_407_104)"/>
<defs>
<linearGradient id="paint0_linear_407_104" x1="41.5522" y1="0.0488281" x2="41.5522" y2="12.3623" gradientUnits="userSpaceOnUse">
<stop stop-color="#14E6AF"/>
<stop offset="0.557292" stop-color="#09A3E0"/>
<stop offset="0.9999" stop-color="#037DFD"/>
<stop offset="1" stop-color="#13E5AF" stop-opacity="0"/>
<stop offset="1" stop-color="#037DFD"/>
</linearGradient>
</defs>
</svg>
