<svg width="63" height="63" viewBox="0 0 63 63" fill="none" xmlns="http://www.w3.org/2000/svg">
<path d="M62.816 31.5021C63.7628 49.1376 47.6659 64.6427 28.6693 62.6898C14.762 61.2694 3.10366 50.0253 1.20991 35.6446C-1.03892 18.7192 10.5011 3.98351 26.7163 0.846985C28.0183 0.610266 29.8529 0.0184617 30.563 1.32041C31.4507 2.79991 31.0956 4.81201 30.7406 6.52822C30.563 7.4751 29.4386 7.17919 28.6693 7.29755C20.9759 8.65868 14.8804 12.4462 10.9154 19.1927C5.58919 28.2472 6.4177 39.5505 13.5784 47.5989C18.372 52.9843 24.3492 56.0024 31.3916 56.1208C39.4992 56.2392 46.4232 53.0435 51.3351 46.4745C58.1407 37.42 58.1999 26.2943 51.631 17.1214C50.7433 15.8786 50.6249 15.4644 51.9861 14.4583C56.1878 11.2626 56.4245 11.2034 58.9693 16.1153C61.6324 21.1456 63.4078 26.2942 62.816 31.5021Z" fill="#323232"/>
<path d="M32.0424 4.27898C32.0424 0.254757 32.4566 -0.27786 35.8891 0.136397C42.2805 0.846554 47.9617 3.50965 52.8736 7.65222C54.294 8.83582 54.5899 10.3745 53.1695 11.7356C51.6901 13.1559 50.2697 15.5231 47.7842 13.6294C43.7008 10.4928 39.2623 8.48073 34.1728 7.71139C31.924 7.41549 31.9832 5.58093 32.0424 4.27898Z" fill="#BEC0C0"/>
</svg>
