<svg width="125" height="29" viewBox="0 0 125 29" fill="none" xmlns="http://www.w3.org/2000/svg">
<g clip-path="url(#clip0_385_27)">
<path fill-rule="evenodd" clip-rule="evenodd" d="M103.839 18.0779C103.839 22.0651 101.528 24.8096 97.6073 24.8096C95.9973 24.8096 94.5172 24.1364 93.868 23.1007V24.6024H90.5962V6.27148H93.868V13.0032C94.6211 12.0193 96.0233 11.3461 97.6592 11.3461C101.528 11.3461 103.839 14.0906 103.839 18.0779ZM93.6603 18.0779C93.6603 20.434 95.0366 21.9874 97.1399 21.9874C99.2173 21.9874 100.594 20.434 100.594 18.0779C100.594 15.7218 99.2173 14.1683 97.1399 14.1683C95.0366 14.1683 93.6603 15.7218 93.6603 18.0779Z" fill="black"/>
<path fill-rule="evenodd" clip-rule="evenodd" d="M57.1866 24.6023L53.19 16.4984C54.9817 15.6181 56.0464 13.8834 56.0464 11.838C56.0464 8.5757 53.7353 6.47852 50.1778 6.47852H41.5L41.526 24.6023H45.0575V17.1716H49.5806L53.0838 24.6023H57.1866ZM45.0575 9.50778H49.6325C51.4502 9.50778 52.4889 10.3881 52.4889 11.838C52.4889 13.2879 51.4502 14.1423 49.6325 14.1423H45.0575V9.50778Z" fill="black"/>
<path fill-rule="evenodd" clip-rule="evenodd" d="M67.9328 11.5528H71.2047V24.6019H67.9328V23.1002C67.2836 24.1359 65.8294 24.8091 64.1935 24.8091C60.2725 24.8091 57.9614 22.0646 57.9614 18.0774C57.9614 14.0902 60.2725 11.3457 64.1416 11.3457C65.7775 11.3457 67.1797 12.0189 67.9328 13.0027V11.5528ZM61.2073 18.0774C61.2073 20.4335 62.5835 21.9869 64.6609 21.9869C66.7643 21.9869 68.1405 20.4335 68.1405 18.0774C68.1405 15.7213 66.7643 14.1678 64.6609 14.1678C62.5835 14.1678 61.2073 15.7213 61.2073 18.0774Z" fill="black"/>
<path d="M82.772 11.5528L82.5643 14.7115C82.0969 14.5044 81.4737 14.4009 80.9024 14.4009C79.0587 14.4009 77.3968 15.9284 77.3968 19.8121V24.6019H74.125V11.5528H77.3968V13.9348C78.046 12.459 79.7598 11.3457 81.3438 11.3457C81.8112 11.3457 82.3825 11.4234 82.772 11.5528Z" fill="black"/>
<path d="M87.6864 24.6018H84.4146V11.5527H87.6864V24.6018Z" fill="black"/>
<path d="M106.059 24.6024H109.33V6.27148H106.059V24.6024Z" fill="black"/>
<path fill-rule="evenodd" clip-rule="evenodd" d="M124.575 17.6372C124.575 14.608 122.419 11.3457 118.005 11.3457C113.668 11.3457 111.539 14.6857 111.539 18.0774C111.539 21.4691 113.85 24.8091 118.187 24.8091C121.251 24.8091 123.536 23.3592 124.263 20.8995L121.199 20.071C120.861 21.3396 119.771 22.0646 118.239 22.0646C116.369 22.0646 115.097 20.8995 114.811 18.9318H124.523C124.549 18.6729 124.575 18.1033 124.575 17.6372ZM114.889 16.5498C115.252 14.7892 116.395 13.8313 118.005 13.8313C119.901 13.8313 120.913 14.9963 121.069 16.5498H114.889Z" fill="black"/>
<path d="M84.0273 6.94336C84.0273 6.11493 84.6989 5.44336 85.5273 5.44336H86.6006C87.429 5.44336 88.1006 6.11493 88.1006 6.94336V8.0166C88.1006 8.84503 87.429 9.5166 86.6006 9.5166H85.5273C84.6989 9.5166 84.0273 8.84503 84.0273 8.0166V6.94336Z" fill="black"/>
</g>
<rect width="37" height="29" rx="7" fill="#FEDA03"/>
<g clip-path="url(#clip1_385_27)">
<path fill-rule="evenodd" clip-rule="evenodd" d="M27.7927 10.7411C27.7927 12.564 26.7277 13.4707 25.5308 13.7856C26.9633 14.2151 28 15.389 28 17.25V20.6667H22.5337V17.4218C22.5337 16.4292 21.9494 16.0284 20.9504 16.0284H14.4663V20.6667H9V7H21.9871C25.248 7 27.7927 7.70624 27.7927 10.7411ZM14.4687 10.8183H21.8585C21.8695 10.8179 21.8806 10.8183 21.8917 10.8183C22.3998 10.8183 22.8118 11.2355 22.8118 11.75C22.8118 12.2645 22.3998 12.6817 21.8917 12.6817C21.8806 12.6817 21.8695 12.6815 21.8585 12.6811L14.4687 12.6817V10.8183Z" fill="black"/>
</g>
<defs>
<clipPath id="clip0_385_27">
<rect width="84" height="20" fill="white" transform="translate(41 5)"/>
</clipPath>
<clipPath id="clip1_385_27">
<rect width="19" height="14" fill="white" transform="translate(9 7)"/>
</clipPath>
</defs>
</svg>
