<svg width="33" height="32" viewBox="0 0 33 32" fill="none" xmlns="http://www.w3.org/2000/svg">
<path d="M32.0014 15.6678C32.0014 18.7452 32.0606 21.7633 32.0014 24.8407C31.9422 29.1016 29.22 31.8831 25.0182 31.9422C18.9819 32.0014 13.0047 32.0014 6.96842 31.9422C2.88502 31.8831 0.103564 29.1608 0.0443848 25.0774C-0.0147949 19.0411 -0.0147949 13.0639 0.0443848 7.0276C0.103564 2.76666 2.88501 0.0443848 7.14595 0.0443848C13.2415 -0.0147949 19.337 -0.0147949 25.4917 0.0443848C29.22 0.0443848 31.9422 2.82583 32.0014 6.55415C32.0606 9.57231 32.0014 12.5905 32.0014 15.6678ZM14.7801 17.7983C14.4842 20.4022 13.1231 22.4143 12.4721 24.6631C12.2946 25.3141 11.9395 26.0835 12.7089 26.4977C13.3598 26.8528 13.8333 26.3202 14.1883 25.9059C17.029 22.5327 19.9288 19.1594 22.7102 15.727C23.8346 14.3067 23.1837 13.5965 21.5266 13.5965C20.1063 13.5965 18.686 13.5965 17.029 13.5965C18.035 10.9926 18.8043 8.86217 19.5737 6.7317C19.8104 6.08072 20.1063 5.31138 19.337 4.89713C18.686 4.54205 18.2126 5.07467 17.8575 5.48892C15.0168 8.86217 12.117 12.2354 9.3356 15.6678C8.15201 17.1473 8.92135 17.7391 10.5192 17.7391C11.9395 17.7983 13.3006 17.7983 14.7801 17.7983Z" fill="black"/>
</svg>
