<svg width="28" height="32" viewBox="0 0 28 32" fill="none" xmlns="http://www.w3.org/2000/svg">
<path fill-rule="evenodd" clip-rule="evenodd" d="M10.3526 11.9242C10.2928 12.1549 10.1885 12.3715 10.0455 12.5618C9.7793 12.9088 9.427 13.1794 9.0239 13.3466C8.6614 13.5035 8.2774 13.605 7.8849 13.6475C7.8042 13.6578 7.7206 13.6641 7.6395 13.6703L7.6263 13.6713C7.3777 13.6808 7.1387 13.77 6.9442 13.9258C6.7497 14.0817 6.61 14.296 6.5455 14.5373C6.516 14.6574 6.494 14.7792 6.4798 14.9021C6.4572 15.0874 6.4456 15.2771 6.433 15.4823C6.424 15.6295 6.4144 15.7848 6.4 15.9521C6.3156 16.6337 6.1193 17.2965 5.8192 17.9136C5.7579 18.0433 5.6954 18.1691 5.6339 18.2926C5.3049 18.9546 5.0076 19.5526 5.0929 20.3535C5.1597 20.9706 5.4744 21.3841 5.8925 21.8106C6.0911 22.0146 6.3544 22.1889 6.6277 22.3699C7.3927 22.8763 8.2361 23.4347 7.9582 24.8415C7.7308 25.9814 5.8494 27.1776 3.205 27.5954C3.4615 27.5563 2.8965 26.5879 2.8338 26.4804L2.83 26.4739C2.7571 26.3592 2.6824 26.2462 2.6079 26.1334C2.3927 25.8076 2.1783 25.4835 2.0111 25.1241C1.5693 24.1856 1.3645 23.0998 1.5455 22.0714C1.7095 21.1407 2.3221 20.3972 2.9118 19.6813C3.008 19.5646 3.1035 19.4487 3.1964 19.3328C3.9852 18.3488 4.8128 17.0595 4.9959 15.7822C5.0114 15.6712 5.0252 15.5502 5.0397 15.4229C5.0657 15.195 5.0939 14.9469 5.1382 14.6997C5.2039 14.2728 5.3371 13.8591 5.5326 13.4743C5.666 13.222 5.8417 12.9946 6.052 12.8021C6.1616 12.6999 6.2339 12.5637 6.2574 12.4153C6.2808 12.267 6.254 12.115 6.1813 11.9837L1.9658 4.3673L8.0207 11.8733C8.0897 11.9603 8.1768 12.031 8.276 12.0803C8.3752 12.1296 8.484 12.1564 8.5946 12.1588C8.7053 12.1612 8.8151 12.1391 8.9163 12.094C9.0175 12.049 9.1076 11.9821 9.1802 11.8982C9.2569 11.8084 9.3004 11.6947 9.3033 11.5763C9.3063 11.458 9.2685 11.3423 9.1963 11.2487C8.9148 10.8873 8.6218 10.521 8.3302 10.1563C8.2122 10.0088 8.0943 9.8613 7.9776 9.7148L6.4539 7.8205L3.3957 4.0382L0 0L3.788 3.6994L7.0433 7.3149L8.6673 9.127C8.8165 9.2958 8.9657 9.4631 9.1148 9.6303C9.5044 10.0671 9.894 10.5039 10.2836 10.9673L10.372 11.0755L10.3914 11.2433C10.4176 11.4708 10.4045 11.7012 10.3526 11.9242ZM25.9247 14.4697L25.9311 14.4795C25.93 13.6719 25.4322 12.3394 24.4247 11.0577L24.401 11.0263C24.0906 10.641 23.7524 10.2792 23.3891 9.9438C23.3212 9.8778 23.248 9.8128 23.1736 9.7479C22.7081 9.3401 22.1993 8.985 21.6564 8.6892L21.6176 8.6697C19.9118 7.7366 17.692 7.256 14.9549 7.7972C14.5873 7.3489 14.1914 6.9248 13.7696 6.5275C13.1236 5.9091 12.3632 5.4241 11.5315 5.0997C10.7072 4.7966 9.8244 4.6884 8.9517 4.7836C9.7929 4.8597 10.6123 5.0947 11.3666 5.4764C12.0951 5.8685 12.7512 6.3833 13.3062 6.9984C13.8688 7.6263 14.3976 8.2839 14.8903 8.9685L15.0139 9.1302C15.496 9.7609 15.9868 10.403 16.5982 10.9744C16.9348 11.2925 17.3103 11.5664 17.7157 11.7895C17.8234 11.8447 17.9323 11.8966 18.039 11.9421C18.1456 11.9876 18.2458 12.0298 18.3536 12.0688C18.5616 12.1499 18.7771 12.2171 18.9926 12.2788C19.8547 12.5256 20.7372 12.6143 21.5993 12.662C21.7192 12.6683 21.8389 12.6742 21.9581 12.6801C22.266 12.6954 22.5713 12.7105 22.8719 12.7323C23.2837 12.7569 23.6922 12.8214 24.0917 12.925C24.6918 13.0822 25.2201 13.4413 25.5885 13.9425C25.7137 14.1095 25.8261 14.2857 25.9247 14.4697ZM23.4013 9.9451C23.358 9.9049 23.3139 9.8651 23.27 9.8254C23.2418 9.7999 23.2136 9.7745 23.1858 9.7491C23.2073 9.7688 23.2288 9.7887 23.2503 9.8087C23.3009 9.8556 23.3514 9.9025 23.4013 9.9451ZM22.3238 17.9172C19.5516 16.7872 16.6518 15.6051 17.0835 12.2875C18.0091 13.2802 19.462 13.4884 21.0422 13.7149C22.4757 13.9203 24.0139 14.1407 25.3583 14.9753C28.5306 16.9433 28.0673 20.7666 26.9897 22.1739C27.0869 19.8587 24.7544 18.908 22.3238 17.9172ZM11.1551 16.2567C11.8868 16.1863 13.4461 15.8042 12.7489 14.5712C12.5989 14.3204 12.3815 14.1172 12.1217 13.9848C11.8619 13.8525 11.5702 13.7965 11.2801 13.8232C10.9858 13.855 10.7082 13.9769 10.4852 14.1725C10.2622 14.3681 10.1044 14.6278 10.0334 14.9165C9.8168 15.723 10.0463 16.3649 11.1551 16.2567ZM10.9448 6.5014C10.4858 5.9688 9.7735 5.6895 9.0752 5.5878C9.0491 5.7625 9.0326 5.9385 9.0257 6.115C8.9944 7.5687 9.5084 9.1654 10.503 10.275C10.8212 10.6337 11.2049 10.9276 11.6334 11.141C11.8812 11.2622 12.5386 11.5631 12.7821 11.2925C12.8006 11.2677 12.8123 11.2384 12.8159 11.2076C12.8195 11.1768 12.8149 11.1456 12.8026 11.1172C12.7622 11.0013 12.6843 10.8961 12.6069 10.7917C12.552 10.7177 12.4974 10.6441 12.4567 10.5672C12.4155 10.4898 12.3714 10.4142 12.3274 10.3388C12.2447 10.197 12.1622 10.0555 12.0989 9.9015C11.9319 9.4984 11.845 9.0698 11.7583 8.6425C11.741 8.5571 11.7236 8.4712 11.7056 8.386C11.5731 7.7268 11.4039 7.034 10.9448 6.5014ZM20.7524 18.098C20.0403 20.0943 21.1888 21.7804 22.3306 23.4566C23.6077 25.3315 24.8764 27.194 23.5228 29.4642C26.1532 28.3731 27.4021 25.0769 26.3105 22.4616C25.6227 20.8074 23.9649 19.9106 22.4261 19.0783C21.8291 18.7554 21.2499 18.4421 20.7524 18.098ZM13.0552 22.8633C12.5785 23.0587 12.129 23.3152 11.7179 23.6265C12.6527 23.2859 13.6339 23.0914 14.6274 23.0495C14.8074 23.0388 14.9887 23.0304 15.1715 23.0219C15.4873 23.0073 15.8085 22.9925 16.136 22.9651C16.6729 22.9285 17.2025 22.8192 17.7103 22.6403C18.2425 22.4533 18.7268 22.1501 19.1284 21.7527C19.5342 21.3424 19.8188 20.8272 19.9506 20.2642C20.0666 19.7324 20.0503 19.1801 19.9032 18.6562C19.756 18.1322 19.4825 17.6528 19.1069 17.2603C19.2881 17.7221 19.3996 18.2084 19.4377 18.7033C19.4705 19.164 19.4081 19.6265 19.2545 20.0618C19.1045 20.4744 18.8593 20.8454 18.539 21.1443C18.2081 21.4462 17.825 21.6846 17.4086 21.8479C16.8299 22.0821 16.1755 22.1779 15.4939 22.2777C15.183 22.3232 14.8664 22.3696 14.5487 22.4303C14.0378 22.5243 13.5374 22.6694 13.0552 22.8633ZM21.3187 31.1046L21.273 31.1415C21.1525 31.2388 21.0301 31.3379 20.8982 31.4268C20.7301 31.538 20.554 31.6365 20.3713 31.7212C19.9908 31.9077 19.5726 32.0029 19.1493 31.9994C18.0028 31.9778 17.1924 31.1205 16.7183 30.1516C16.594 29.8977 16.4845 29.6359 16.375 29.3741C16.1997 28.9551 16.0244 28.5361 15.7883 28.149C15.2399 27.2495 14.3013 26.5253 13.2022 26.6595C12.7539 26.7158 12.3336 26.9182 12.0847 27.309C11.4295 28.3298 12.3703 29.7598 13.5696 29.5573C13.6716 29.5417 13.7714 29.5141 13.867 29.4751C13.9623 29.4343 14.0512 29.38 14.131 29.3138C14.2986 29.1736 14.4248 28.9903 14.4963 28.7834C14.5751 28.5676 14.5926 28.3341 14.547 28.109C14.4978 27.8736 14.3594 27.6668 14.1612 27.532C14.3917 27.6404 14.5713 27.8345 14.6623 28.0732C14.7566 28.319 14.7809 28.5862 14.7323 28.8451C14.6852 29.1147 14.5669 29.3667 14.3896 29.5747C14.2955 29.6816 14.1866 29.7746 14.0664 29.8507C13.9472 29.9259 13.8195 29.9866 13.686 30.0315C13.4153 30.1244 13.1272 30.1544 12.8433 30.1192C12.4447 30.0621 12.0688 29.8983 11.755 29.645C11.697 29.599 11.6414 29.5508 11.5875 29.5008C11.374 29.3158 11.1802 29.1087 11.0093 28.8829C10.9326 28.7981 10.8547 28.7144 10.7733 28.634C10.3891 28.229 9.9358 27.8965 9.4349 27.6522C9.0895 27.4998 8.728 27.3872 8.3574 27.3166C8.1709 27.2776 7.9824 27.2495 7.7938 27.2257C7.7733 27.2236 7.734 27.2167 7.685 27.2082C7.5276 27.1807 7.2711 27.136 7.2259 27.178C7.8088 26.639 8.4441 26.1603 9.1224 25.7491C9.8189 25.334 10.5667 25.0126 11.3466 24.7933C12.1551 24.5647 13.0009 24.4995 13.8347 24.6017C14.2639 24.6535 14.6843 24.7627 15.0847 24.9264C15.5042 25.0948 15.8914 25.3351 16.2291 25.6366C16.5632 25.9528 16.8333 26.3311 17.0243 26.7504C17.1968 27.1431 17.3254 27.5537 17.4079 27.9747C17.4521 28.2013 17.4855 28.4502 17.5199 28.7079C17.677 29.8822 17.8585 31.2372 19.2043 31.4733C19.2898 31.49 19.3761 31.5023 19.4629 31.5102L19.7312 31.5166C19.9157 31.5034 20.099 31.477 20.2797 31.4376C20.6541 31.3492 21.019 31.2241 21.3691 31.0642L21.3187 31.1046ZM11.0801 28.9619C11.1123 28.9989 11.1449 29.0355 11.1779 29.0718C11.1644 29.0567 11.151 29.0415 11.1375 29.0264C11.1184 29.0049 11.0993 28.9834 11.0801 28.9619Z" fill="#FC72FF"/>
</svg>
